<svg xmlns="http://www.w3.org/2000/svg" viewBox="0 0 108.528 119.271">
  <g id="layer101" transform="translate(-2917 -1200)">
    <path id="Path_41" data-name="Path 41" d="M2975.367,1319.141a1.51,1.51,0,0,1-.611-.431.772.772,0,0,0-.5-.287,3.084,3.084,0,0,1-1.06-.647c-.791-.665-.827-.665-3-.809a33.257,33.257,0,0,1-5.966-.88c-.755-.234-6.02-1.078-6.7-1.078a1.8,1.8,0,0,0-1.114.485l-.575.485-.9-.323a13.577,13.577,0,0,1-2.1-1.06c-1.2-.737-1.2-.737-1.24-1.6a8.591,8.591,0,0,0-1.006-3.288,8.987,8.987,0,0,0-3.217-2.085,5.1,5.1,0,0,1-2.1-1.509,12.94,12.94,0,0,0-2.12-1.761,5.16,5.16,0,0,1-1.438-1.384,23.243,23.243,0,0,0-4.259-3.953,2.631,2.631,0,0,0-1.527-.359,8.437,8.437,0,0,1-5.768-2.246,13.642,13.642,0,0,0-2.767-2.067,8.823,8.823,0,0,1-1.635-1.743,18.5,18.5,0,0,1-1.8-3.828c-.234-.647-1.024-2.372-1.779-3.846a29.2,29.2,0,0,1-1.348-2.911,6.008,6.008,0,0,0-.449-1.258,5.357,5.357,0,0,1-.449-1.348,12.359,12.359,0,0,0-.521-1.9,55.339,55.339,0,0,1-1.617-6.254,39.775,39.775,0,0,1-.683-7.745l-.108-4.151.629-.377c1.222-.755,2.031-2.408,2.57-5.3.359-1.869.305-2.354-.377-3.163-.827-.97-.845-1.437-.162-3.594a16.786,16.786,0,0,0,.934-5.75,3.806,3.806,0,0,1,.575-2.372c.377-.827,1.222-2.39,1.869-3.468a16.957,16.957,0,0,0,1.419-2.7,17.234,17.234,0,0,0,.234-3.073c0-2.767.234-3.432,1.779-4.978a39.265,39.265,0,0,0,4.277-4.96,9.664,9.664,0,0,0,.233-2.192l.018-1.689.9-.7c.485-.377,1.456-1.15,2.139-1.707.7-.575,1.671-1.33,2.174-1.689l.917-.665,1.869.449a19.038,19.038,0,0,0,7.009.431,8.082,8.082,0,0,0,3.252-1.725,9.631,9.631,0,0,0,2.714-2.965,13.45,13.45,0,0,1,1.456-1.8c.359-.341,1.258-1.186,1.977-1.9a12.924,12.924,0,0,1,1.923-1.581,7.512,7.512,0,0,0,.9-.557,8.723,8.723,0,0,1,1.761-.791,7.7,7.7,0,0,1,3.576-.539c2.1.018,2.1.018,3.45.719.737.4,2.1,1.078,3.037,1.527a5.627,5.627,0,0,0,3.558.809,5.353,5.353,0,0,0,2.444-.306c.5-.27,1.078-.306,4.223-.252,3.4.036,3.72.072,4.457.449a4.277,4.277,0,0,1,1.384,1.222,15.4,15.4,0,0,0,2.785,3c.863.611,1.528.773,3.9.917a6.337,6.337,0,0,1,3.558.863,17.241,17.241,0,0,1,1.851,1.1,1.679,1.679,0,0,0,.7.377,13.628,13.628,0,0,1,2.049,1.959c2.138,2.3,3.324,3.145,4.4,3.163a2.162,2.162,0,0,1,1.455.539,9.62,9.62,0,0,0,1.4.9,14.418,14.418,0,0,1,3.181,2.7c.341.4,1.006,1.078,1.456,1.527a17.7,17.7,0,0,1,1.689,2.067c.755,1.078,1.689,2.372,2.911,4.007.18.234.934,1.042,1.689,1.8a17.192,17.192,0,0,1,2.678,3.181,2.087,2.087,0,0,1-.575.629c-.557.485-.575.575-.647,2.138a7.747,7.747,0,0,0,.683,3.882c.09.2.377.916.629,1.6a13.418,13.418,0,0,0,1.042,2.156,16.275,16.275,0,0,1,1.024,1.9,7.488,7.488,0,0,0,.647,1.258c.233.305.521,2.21.809,5.445a119.86,119.86,0,0,1-.611,17.107,22.513,22.513,0,0,1-2.336,6.451c-1.024,1.725-1.2,2.336-1.384,4.96a27.523,27.523,0,0,1-.342,2.875,14.29,14.29,0,0,0,.162,5.535,8.728,8.728,0,0,1,.359,2.156,2.159,2.159,0,0,1-.737,1.887,14.094,14.094,0,0,1-2.228,1.851,15.949,15.949,0,0,0-2.426,1.977l-.952,1.006.144.916c.234,1.689.252,1.617-.539,1.761a7.956,7.956,0,0,0-1.222.323,4.115,4.115,0,0,1-1.2.2,30.084,30.084,0,0,0-6.325,1.491c-.521.234-1.348.575-1.833.755-1.869.683-2.642,1.887-2.911,4.51-.09.844-.2,1.168-.431,1.24a1.859,1.859,0,0,0-1.114,1.617l-.054.719-1.024.126a7.735,7.735,0,0,0-1.995.593,5.292,5.292,0,0,1-1.222.449,9.941,9.941,0,0,0-1.851.809,8.931,8.931,0,0,1-1.958.809,3.266,3.266,0,0,0-1.15.593l-.809.575-3.36.108c-3.091.09-3.468.144-4.96.647a28.6,28.6,0,0,0-2.731,1.1,2.85,2.85,0,0,0-1.689,1.743C2976.122,1319.339,2976.014,1319.411,2975.367,1319.141Zm-.234-9.6c1.618-.539,2.139-.629,2.642-.449a2.662,2.662,0,0,0,1.545-.108,9.572,9.572,0,0,1,1.707-.27c1.258,0,6.523-1.941,7.942-2.911a1.85,1.85,0,0,1,.629-.323,71.764,71.764,0,0,0,6.954-5.589,2.019,2.019,0,0,0,.467-.845,3.078,3.078,0,0,1,1.348-1.474,7.728,7.728,0,0,0,1.456-1.042,17.46,17.46,0,0,1,2.139-1.545,19.92,19.92,0,0,0,2.013-1.4,33.227,33.227,0,0,1,5.445-3.306,12.428,12.428,0,0,0,4.331-3.882c1.51-1.959,2.138-3.36,2.138-4.726a11.145,11.145,0,0,1,.288-2.246,20.673,20.673,0,0,0,.359-3.414,17.136,17.136,0,0,1,.629-4.4,17.151,17.151,0,0,0,.611-5.3c.036-1.725.126-3.81.2-4.618.126-1.42.108-1.474-.4-2.174a2.075,2.075,0,0,0-.97-.809c-.557-.108-.5-.162-.809.881-.144.485-.377,1.24-.521,1.689s-.359,1.258-.467,1.8c-.09.539-.377,1.923-.629,3.055a18.09,18.09,0,0,0-.449,4.6,16.773,16.773,0,0,1-.179,3.055,14.633,14.633,0,0,0-.342,1.9,4.622,4.622,0,0,1-.521,1.887,6.77,6.77,0,0,0-.611,1.132,6.89,6.89,0,0,1-.881,1.366c-.341.4-.97,1.24-1.419,1.887a49.474,49.474,0,0,1-5.769,5.948,18.312,18.312,0,0,1-4.51,3.037,21.624,21.624,0,0,0-5.283,4.492,33.472,33.472,0,0,1-6.02,5.481c-1.923,1.2-2.121,1.186-.359,0a24.476,24.476,0,0,0,3.773-3.4c5-5.265,5.391-5.607,9.093-7.763a16.7,16.7,0,0,0,3.343-2.677,63.746,63.746,0,0,0,4.654-5.068c.144-.216.754-1.024,1.348-1.8,1.527-2.013,2.426-3.72,2.534-4.816a21.2,21.2,0,0,1,.377-2.156,10.158,10.158,0,0,0,.18-3.091,10.212,10.212,0,0,1,.431-4.043c.288-1.2.647-2.839.791-3.648a12.2,12.2,0,0,1,.5-2.085,8.178,8.178,0,0,0,.377-1.294c.126-.647.108-.683-.377-.7-.27,0-1.833-.108-3.468-.216-1.635-.126-3.127-.2-3.342-.162-.342.054-.4.2-.485,1.923a15.287,15.287,0,0,0-.018,2.408,31.612,31.612,0,0,1-.036,3.917l-.162,3.378-.108-4.4c-.054-2.426-.054-5.086,0-5.912l.126-1.51-2.264.126c-3.684.18-3.414.054-3.989,1.869a31.084,31.084,0,0,0-1.186,6.954,11.232,11.232,0,0,1-.683,4.6,19.95,19.95,0,0,1-6.865,7.08,14.962,14.962,0,0,0-3.63,2.983c-3.181,3.127-3.594,3.253-.611.18,2.049-2.1,2.642-2.606,3.9-3.271a10.9,10.9,0,0,0,2.714-2.049,33.325,33.325,0,0,0,4.115-5.211,15.606,15.606,0,0,0,.772-5,33.05,33.05,0,0,1,1.06-6.361,5.483,5.483,0,0,0,.27-1.042c0-.359-1.366-.521-3.109-.359a11.5,11.5,0,0,1-3.935-.054,14.769,14.769,0,0,0-1.779-.287l-1.024-.108-.126,1.851c-.18,2.8-.611,7.116-.809,8.1a13.841,13.841,0,0,1-2.821,5.014c-1.06,1.258-1.492,1.617-1.492,1.258a6.537,6.537,0,0,1,.863-1.15c2.192-2.57,2.893-4.439,3.36-9.021.251-2.534.485-4.349.737-5.553l.108-.5h-2.516c-3.576,0-3.522-.018-3.9,1.33-1.312,4.744-2.7,7.943-3.648,8.464a6.367,6.367,0,0,0-.916.629l-.431.359.4,1.006a12.816,12.816,0,0,0,2.839,3.864c1.024.97,4.1,2.66,4.888,2.677.413.018-2.983,1.6-3.846,1.8-.4.09-1.6.377-2.7.611a30.911,30.911,0,0,1-8.536.9,22.066,22.066,0,0,1-3.414-.341,12.979,12.979,0,0,0-1.617-.341,12.123,12.123,0,0,1-1.42-.306c-.557-.2-.593-.234-.5-.863.072-.359.2-1.186.288-1.851a22.57,22.57,0,0,1,.844-3.055,40.334,40.334,0,0,0,2.408-9.578c.09-.683.234-1.869.323-2.642a10.917,10.917,0,0,0,.108-1.8c-.521-3.612-1.078-5.571-1.851-6.541a1.66,1.66,0,0,1-.377-.827c0-.521-.593-.126-1.258.863-.7.988-.611,1.366.629,2.893a13.606,13.606,0,0,1,1.114,1.563,5.122,5.122,0,0,0,.755,1.078c.359.4.4.467.108.323a4.978,4.978,0,0,1-1.545-1.689c-.234-.359-.773-1.1-1.2-1.635a5.051,5.051,0,0,1-.88-1.617c-.072-.539,0-.719.593-1.384a4.6,4.6,0,0,1,1.1-.917.577.577,0,0,0,.414-.575c0-.575.323-.845,1.06-.845a11.4,11.4,0,0,0,1.725-.27,22.862,22.862,0,0,1,3-.377c1.851-.126,1.941-.144,1.671-.449a11.268,11.268,0,0,0-2.246-1.078c-1.078-.431-1.869-.844-1.761-.9a1.557,1.557,0,0,1,.934.2c.413.18,1.294.557,1.959.827a4.774,4.774,0,0,1,1.563.916c.4.5,2.21.863,5.732,1.132a22.211,22.211,0,0,1,2.282.234,11.57,11.57,0,0,1-.2,1.743c-.359,2.282-.377,2.156.467,2.156h.737l-.126-1.384c-.216-2.192-1.222-4.025-3.576-6.523-.9-.953-.934-1.006-.2-.306a4.94,4.94,0,0,0,1.078.845,11.9,11.9,0,0,1,2.372,3.324,6.886,6.886,0,0,1,.593,2.48l.09,1.4,1.348.036c.737,0,2.175,0,3.2-.018l1.833-.036v-.665a12.486,12.486,0,0,0-.2-1.761c-.108-.593-.287-1.923-.413-2.965a12.354,12.354,0,0,0-.431-2.282c-.126-.234-.18-.413-.126-.413a3.676,3.676,0,0,1,.521.952,6.011,6.011,0,0,1,.449,2.3,10.55,10.55,0,0,0,.288,2.246,7.47,7.47,0,0,1,.27,1.761v.881l2.3-.108c1.258-.072,3.486-.18,4.942-.234l2.659-.126-.125-.557a21.5,21.5,0,0,0-1.006-2.534c-.485-1.078-1.168-2.642-1.492-3.45a20.174,20.174,0,0,0-1.222-2.426c-.323-.521-.952-1.6-1.384-2.39a54.935,54.935,0,0,0-3.846-5.84c-.539-.611-.539-.629-.054-.18,1.15,1.006,4.924,7.062,6.577,10.512,1.042,2.174,2.893,6.469,2.893,6.739,0,.162.179.2.683.108.359-.054,1.9-.108,3.432-.108h2.75l-.108-2.282c-.342-6.415-1.366-11.285-2.767-13.046-.359-.449-.953-1.24-1.294-1.743a13.124,13.124,0,0,0-1.941-1.977,14.759,14.759,0,0,1-1.851-1.851c-3.037-4.241-8.159-9.093-9.632-9.111a.479.479,0,0,1-.359-.234c-.288-.485-1.959-.934-4.78-1.294-1.114-.144-2.5-.341-3.091-.449a36.66,36.66,0,0,0-5.571-.719c-.593,0-2.21-.126-3.594-.27s-3.936-.341-5.661-.431l-3.145-.162,3.684.09c2.031.036,4.331.162,5.122.251s2.659.252,4.133.342c1.492.09,3.917.359,5.391.611,1.491.234,3.145.485,3.684.557a16.218,16.218,0,0,1,4.492,1.042c.431.216.97.5,1.24.647a6.993,6.993,0,0,1,1.132.863,9.024,9.024,0,0,0,.988.845,5.662,5.662,0,0,1,2.21,1.9,70.849,70.849,0,0,0,6.325,7.368,26.923,26.923,0,0,1,2.354,2.534c.305.467.791,1.114,1.042,1.438,1.24,1.617,2.318,7.4,2.318,12.435v2.462l2.39-.018c1.294,0,3.63-.108,5.139-.216l2.785-.216.449-.9a4.88,4.88,0,0,0,.521-2.552c.09-1.995-.054-2.426-1.438-4.439a11.9,11.9,0,0,1-1.995-3.881,19.725,19.725,0,0,1-1.384-5.247,10.06,10.06,0,0,0-2.39-5.553,9.965,9.965,0,0,1-1.258-1.977,16.6,16.6,0,0,0-1.348-2.228,30.682,30.682,0,0,0-5.876-5.068,20.411,20.411,0,0,1-2.156-1.6,13.794,13.794,0,0,0-2.426-1.491,10.475,10.475,0,0,0-3.234-1.258,21.873,21.873,0,0,1-2.336-.539,7.36,7.36,0,0,0-1.653-.377,12.933,12.933,0,0,1-4.079-2.1,14.03,14.03,0,0,1-2.48-2.534,3.288,3.288,0,0,0-1.024-.755c-.4-.2-1.1-.557-1.545-.809a3.807,3.807,0,0,0-1.348-.449,13.183,13.183,0,0,1-2.067-.4,14,14,0,0,0-6.739-.018,64.987,64.987,0,0,1-6.757,1.563,5.094,5.094,0,0,0-2.768,1.132c-1.9,1.366-2.084,1.455-3.594,1.761a13.8,13.8,0,0,0-2.174.629,26.549,26.549,0,0,1-2.785.809c-1.132.27-2.857.683-3.846.934s-2.282.557-2.875.7a17,17,0,0,0-2.821,1.06,12.836,12.836,0,0,1-2.031.809,6.434,6.434,0,0,0-1.312.431,9.531,9.531,0,0,1-1.923.557,7.286,7.286,0,0,0-4.043,1.527,2.445,2.445,0,0,0-.719,1.06,2.752,2.752,0,0,1-.467,1.006c-.251.377-.647,1.06-.88,1.509-.216.449-.593,1.186-.827,1.635-.216.449-.863,1.617-1.437,2.606a13.067,13.067,0,0,0-1.15,2.48,17.1,17.1,0,0,1-1.869,4.331c-.18.216-.881,1.2-1.545,2.228-.665,1.006-1.276,1.869-1.348,1.923a18.934,18.934,0,0,0-1.635,4.618,16.054,16.054,0,0,0-.323,3.864c.018,2.965.27,3.9,1.348,5.032a9.807,9.807,0,0,1,1.546,2.39,4.892,4.892,0,0,1,.7,2.875c-.036,1.923-.054,2.857-.036,3.684a9.471,9.471,0,0,1-.431,2.246c-.234.845-.611,2.5-.827,3.684a17.406,17.406,0,0,0-.251,5.121c.072,1.635.144,3.971.18,5.211a13.575,13.575,0,0,0,1.186,5.786,26.879,26.879,0,0,0,3.917,6.128,22.48,22.48,0,0,0,4.51,3.486c.845.485,2.39,1.51,3.45,2.264a8.854,8.854,0,0,0,2.606,1.474,9.89,9.89,0,0,1,3.845,2.516,4.336,4.336,0,0,0,2.965,1.527,1.322,1.322,0,0,1,.826.647c1.078,1.51,5.517,4.043,8.823,5.032a25.853,25.853,0,0,1,4.169,1.527c.2.09,1.653.5,3.235.9a21.419,21.419,0,0,0,5.391.881c1.384.054,2.7.126,2.911.144A3.771,3.771,0,0,0,2975.133,1309.545Zm5.193-42.1c1.186-.773,2.1-2.821,3.5-7.763a8.6,8.6,0,0,0,.359-1.6,5.629,5.629,0,0,0-1.258.054c-1.168.126-1.2.144-1.833,1.024a12.2,12.2,0,0,0-1.761,7.943,2.379,2.379,0,0,0,.2.827A5.969,5.969,0,0,0,2980.326,1267.442Z"/>
    <path id="Path_42" data-name="Path 42" d="M6164.138,7071.527a8.39,8.39,0,0,1,1.348,0c.359.036.054.072-.683.072S6163.76,7071.563,6164.138,7071.527Z" transform="translate(-3188.627 -5765.989)"/>
    <path id="Path_43" data-name="Path 43" d="M3621.164,1986.469c-1.042-.323-2.7-.737-3.684-.917-4.259-.755-8.625-2.893-13.028-6.415a26.966,26.966,0,0,0-7.907-4.079,25.5,25.5,0,0,1-4.924-1.851c-5.229-2.606-9.452-7.332-10.728-11.986-.27-.952-.737-2.534-1.042-3.522a33.341,33.341,0,0,1-1.635-7.1c-.126-1.132-.216-2.138-.216-2.246.162-4.151.4-8.212.485-8.356.072-.108.144-2.516.162-5.355.054-6.164-.108-5.589,2.911-11.626,2.031-4.079,2.049-4.169,2.534-6.649a9.389,9.389,0,0,1,.809-2.893c.27-.306.323-.665.306-2.156a5.815,5.815,0,0,1,.431-2.911,21.739,21.739,0,0,1,3.145-5.121,34.721,34.721,0,0,1,4.924-3.271,23.872,23.872,0,0,1,9.308-2.336,14.342,14.342,0,0,0,6.164-1.545c3.414-1.545,5.319-1.869,11.447-2.031a31.053,31.053,0,0,1,5.391.144c.97.144,1.563.162,1.635.054a.8.8,0,0,1,.539-.162,22.342,22.342,0,0,1,4.546.953,24.622,24.622,0,0,0,3.055.791,18.846,18.846,0,0,1,3.954,1.258c1.006.467,2.138.988,2.552,1.168a14.931,14.931,0,0,1,3.486,2.785,14.308,14.308,0,0,0,1.168,1.168c.377.341.917.863,1.168,1.15.251.27,1.312,1.348,2.354,2.39a37.443,37.443,0,0,1,2.66,2.893,63.081,63.081,0,0,1,4.438,6.685c.773,1.33,1.779,3,2.246,3.72a16.491,16.491,0,0,1,2.139,4.187c.27.737,1.06,2.606,1.761,4.133a20.65,20.65,0,0,1,1.923,5.337c.126.863.018,1.168-.359,1.006-.162-.054-.27-.323-.27-.665a19.2,19.2,0,0,0-1.869-6c-.629-1.366-1.348-3.019-1.617-3.72a21.3,21.3,0,0,0-2.444-4.87c-.647-1.024-1.527-2.5-1.977-3.307-.773-1.384-3.217-5.086-4.528-6.811a14.593,14.593,0,0,0-2.929-2.947,13.962,13.962,0,0,1-1.527-1.437c-1.815-2.354-4.151-4.529-5.535-5.157-.665-.323-1.563-.755-2.012-.988a15.766,15.766,0,0,0-4.313-1.438,30.67,30.67,0,0,1-3.109-.827c-2.318-.791-5.768-1.4-4.978-.88.323.216-.216.216-2.857.018a15.247,15.247,0,0,0-2.606,0c-.413.072-1.995.18-3.522.252a24.565,24.565,0,0,0-7.781,1.366c-.809.305-1.977.755-2.605.988a18.355,18.355,0,0,1-5.7.791,21.812,21.812,0,0,0-10.512,2.929c-2.624,1.492-3.5,2.246-4.726,4.061a12.054,12.054,0,0,0-2.282,7.278c0,.629-.09,1.042-.27,1.186a.911.911,0,0,0-.27.593,26.882,26.882,0,0,1-.844,3.81c-.27,1.078-.575,1.743-2.821,6.11a35.565,35.565,0,0,0-1.671,3.774c-.467,1.4-.485,1.563-.5,6.29-.018,2.677-.126,5.589-.234,6.469-.108.9-.2,2.264-.2,3.055s-.054,2.013-.108,2.7c-.234,2.48.341,5.948,1.743,10.512.5,1.635,1.1,3.594,1.33,4.367,1.006,3.378,4.169,7.386,7.835,9.884a21.964,21.964,0,0,0,7.691,3.54,27.678,27.678,0,0,1,8,4.151,37.43,37.43,0,0,0,9.452,5.75,21.085,21.085,0,0,0,4.457,1.06c.629.018,4.906,1.42,4.331,1.42A15.187,15.187,0,0,1,3621.164,1986.469Z" transform="translate(-649.122 -681.596)"/>
    <path id="Path_44" data-name="Path 44" d="M6308.747,7061.527a1.84,1.84,0,0,1,.629,0c.162.054.018.09-.324.09S6308.567,7061.581,6308.747,7061.527Z" transform="translate(-3330.721 -5756.169)"/>
    <path id="Path_45" data-name="Path 45" d="M6419.006,6931.1c1.168-.611,2.174-1.1,2.246-1.1a28.43,28.43,0,0,1-3.9,2.067C6417.1,6932.139,6417.856,6931.707,6419.006,6931.1Z" transform="translate(-3437.404 -5627.032)"/>
    <path id="Path_46" data-name="Path 46" d="M6654.688,6881.432a5.039,5.039,0,0,1,.988-.432c.108,0-.179.2-.629.432a4.61,4.61,0,0,1-.988.431C6653.969,6881.862,6654.239,6881.665,6654.688,6881.432Z" transform="translate(-3669.887 -5578.913)"/>
    <path id="Path_47" data-name="Path 47" d="M3914.568,2408.392c-1.581-.377-2.12-.629-8.32-3.684-3.235-1.6-5.157-3.109-8.41-6.577-1.474-1.563-3.864-4.079-5.3-5.571a18.971,18.971,0,0,1-3.091-3.72,39.724,39.724,0,0,1-1.474-4.4,25.042,25.042,0,0,0-2.066-5.5,14.315,14.315,0,0,1-1.078-2.426,3.839,3.839,0,0,0-.809-1.312,8.869,8.869,0,0,1-1.833-4.654,11.233,11.233,0,0,1,.036-4.4,23.347,23.347,0,0,1,2.642-8.733,15.5,15.5,0,0,0,1.707-4.726,20.08,20.08,0,0,1,2.246-6.343c.4-.683.97-1.689,1.276-2.228a21.176,21.176,0,0,1,2.426-3.468,2.034,2.034,0,0,0,.5-.773,1.61,1.61,0,0,1,.4-.683c.2-.2.539-.593.773-.844a13.08,13.08,0,0,1,1.42-1.186c.539-.413,1.276-1.006,1.617-1.312a16.619,16.619,0,0,1,5.571-3.145c.521-.072.539-.054.18.072a18.372,18.372,0,0,0-5.211,3.091c-.054.054-.629.521-1.294,1.006-1.9,1.42-3.037,2.516-3.091,3a1.945,1.945,0,0,1-.449.844,19.72,19.72,0,0,0-2.354,3.666c-.431.791-1.06,1.941-1.384,2.552a20.388,20.388,0,0,0-1.869,5.355,15.232,15.232,0,0,1-1.563,4.043c-2.049,3.828-2.767,5.75-3.2,8.626-.683,4.582-.072,7.979,1.833,10.261a2.994,2.994,0,0,1,.611.934,19.681,19.681,0,0,0,1.078,2.372,27.472,27.472,0,0,1,1.995,5.391c1.2,4.187,1.6,4.96,3.612,6.99.9.9,2.336,2.408,3.181,3.342a90.831,90.831,0,0,0,6.757,6.9c1.582,1.276,3.486,2.336,7.817,4.367,4.564,2.156,6.038,2.57,9.129,2.57a13.623,13.623,0,0,0,4.025-.521,17.927,17.927,0,0,0,7.511-3.756,29.688,29.688,0,0,1,6.11-2.642c4.636-1.06,7.961-2.606,10.333-4.8,1.15-1.042,3.953-3.109,3.5-2.588a8.558,8.558,0,0,1-1.294,1.042,26.529,26.529,0,0,0-2.534,2.031,23.267,23.267,0,0,1-10.009,5,22.386,22.386,0,0,0-8,3.971,21.326,21.326,0,0,1-5.319,2.372A18.676,18.676,0,0,1,3914.568,2408.392Z" transform="translate(-947.648 -1112.307)"/>
    <path id="Path_48" data-name="Path 48" d="M6107.109,5982.535c-1.653-.54-1.294-.557.539,0,.79.234,1.275.431,1.078.431A9.1,9.1,0,0,1,6107.109,5982.535Z" transform="translate(-3131.742 -4696.188)"/>
    <path id="Path_49" data-name="Path 49" d="M6470.018,5974.181a4.539,4.539,0,0,1,1.24-.575,3.226,3.226,0,0,1-1.186.647C6470,5974.253,6469.982,5974.217,6470.018,5974.181Z" transform="translate(-3489.153 -4687.816)"/>
    <path id="Path_50" data-name="Path 50" d="M4400.912,2733.941a24.748,24.748,0,0,1-6.685-3.45,18.328,18.328,0,0,0-1.959-1.24,30.3,30.3,0,0,0-5.014-1.869c-4.475-1.042-9.56-5.319-10.782-9.057-.18-.557-.629-1.743-.988-2.642-1.15-2.821-1.761-5.283-1.617-6.577.036-.251.108-2.713.18-5.481a31.09,31.09,0,0,1,.4-5.715,28.821,28.821,0,0,1,1.653-3.145,14.169,14.169,0,0,0,1.815-4.062,8.592,8.592,0,0,1,.647-1.9,1.635,1.635,0,0,0,.251-.952,9.407,9.407,0,0,1,2.408-5.175,20.545,20.545,0,0,1,4.493-3.109,14.254,14.254,0,0,1,4.331-1.258,11.912,11.912,0,0,0,4.259-1.42,13.793,13.793,0,0,1,2.121-.917c2.57-.755,10.351-.97,12.579-.359.539.144,1.707.449,2.605.647a20.809,20.809,0,0,1,3.468,1.294c1.761.826,2,1.024,3.9,2.983,1.132,1.15,2.21,2.336,2.444,2.624.4.539-.647-.5-3.019-3.019a8.727,8.727,0,0,0-3.073-2.264,13.737,13.737,0,0,0-3.145-1.168,17.1,17.1,0,0,1-1.779-.467,11.859,11.859,0,0,0-3.756-.683c-.09.125-.629.144-1.6.072a12.918,12.918,0,0,0-2.659.054c-.665.09-1.977.27-2.929.377a13.757,13.757,0,0,0-4.78,1.33,11.628,11.628,0,0,1-4.1,1.1,14.293,14.293,0,0,0-9.327,4.439,10.125,10.125,0,0,0-2.084,4.546,6.858,6.858,0,0,1-.341,1.438,11.409,11.409,0,0,0-.629,1.833,16.215,16.215,0,0,1-1.815,3.953,20.9,20.9,0,0,0-1.617,3.2c-.215.7-.287,2.282-.306,7.1l-.054,6.2.485,1.438c.251.791.772,2.174,1.132,3.055.378.9.809,2.048,1.007,2.57a14.65,14.65,0,0,0,3.486,4.852,18.3,18.3,0,0,0,8.176,4.277,25.646,25.646,0,0,1,6.236,2.983,26.589,26.589,0,0,0,7.475,3.828c.719.18.809.252.4.252A7.59,7.59,0,0,1,4400.912,2733.941Z" transform="translate(-1430.667 -1448.745)"/>
    <path id="Path_51" data-name="Path 51" d="M4629.376,3074.631a15.069,15.069,0,0,1-1.8-.935c-.4-.251-1.186-.7-1.726-.97a24.128,24.128,0,0,1-2.336-1.492c-.737-.557-1.743-1.258-2.246-1.6a13.331,13.331,0,0,1-1.959-1.887,4.994,4.994,0,0,0-1.312-1.276c-.521,0-1.833-1.6-2.624-3.217a18.919,18.919,0,0,1-.934-2.049c-.072-.216-.359-.9-.647-1.509a7.747,7.747,0,0,1-.719-3.235,8.054,8.054,0,0,1,.341-4.1,85.263,85.263,0,0,1,2.911-8.553,19.36,19.36,0,0,1,5.643-6.182c1.4-1.024,3.234-2.5,4.636-3.72a22.949,22.949,0,0,1,5.139-3.2,9.466,9.466,0,0,1,5.248.036c.647.2,2.1.629,3.235.952,2.893.826,5.031,1.689,5.031,1.977,0,.054-.306-.054-.683-.252a24.765,24.765,0,0,0-2.552-.917c-1.042-.305-2.66-.809-3.594-1.114a9.075,9.075,0,0,0-3.684-.575c-1.958-.018-1.995,0-3.325.683a27.3,27.3,0,0,0-5,3.361c-.863.7-2.408,1.833-3.45,2.534-3.36,2.282-5.085,4.043-6.326,6.523a65.325,65.325,0,0,0-3.037,8.841c-.485,2.229-.162,5.822.665,7.152a4.808,4.808,0,0,1,.341.809,22.1,22.1,0,0,0,2.39,4.51,5.068,5.068,0,0,0,1.114.97c.575.306.737.432,1.708,1.618a7.958,7.958,0,0,0,2.156,1.977,45.248,45.248,0,0,0,7.17,4.4C4631.191,3075.224,4631.317,3075.458,4629.376,3074.631Z" transform="translate(-1665.492 -1797.468)"/>
    <path id="Path_52" data-name="Path 52" d="M4990.19,3479.082a7.15,7.15,0,0,1-2.911-2.462,17.593,17.593,0,0,0-2.66-3.306c-1.456-1.24-3.252-4.546-3.953-7.224a19.437,19.437,0,0,1,.162-6.056c.557-2.642,1.419-3.935,5.229-7.727,2.264-2.264,2.229-2.264,5.858-2.929a24.441,24.441,0,0,1,5.014-.377,27.387,27.387,0,0,1,3.109.09,14.372,14.372,0,0,1-2.5.108c-1.419,0-3.145.09-3.846.18a28.951,28.951,0,0,0-4.959,1.006,46.2,46.2,0,0,0-5.786,5.8c-1.4,1.869-1.653,2.677-1.923,6.218-.18,2.264-.054,3.792.377,4.564.089.162.4.953.7,1.743a6.736,6.736,0,0,0,.9,1.779,1.112,1.112,0,0,1,.359.485,10.19,10.19,0,0,0,1.887,2.444,11.292,11.292,0,0,1,2.121,2.749,6.594,6.594,0,0,0,3.989,3.055l.719.108-.629.018A3.513,3.513,0,0,1,4990.19,3479.082Z" transform="translate(-2026.414 -2208.585)"/>
    <path id="Path_53" data-name="Path 53" d="M5289.457,3778.024c-.772-.467-1.1-.988-1.707-2.821a27.993,27.993,0,0,0-1.635-3.54c-1.078-1.923-1.114-2.049-1.114-3.253a3.619,3.619,0,0,1,.539-2.228,13.23,13.23,0,0,1,1.384-1.923,3.628,3.628,0,0,1,2.066-1.276,32.251,32.251,0,0,1,5.643-1.276c.413.054-1.689.683-4.385,1.294a4.526,4.526,0,0,0-3.181,1.833c-1.294,1.581-1.617,2.318-1.617,3.7a4.061,4.061,0,0,0,.647,2.426c.359.665.827,1.509,1.06,1.851a15.034,15.034,0,0,1,1.079,2.408c.665,1.833,1.1,2.552,1.761,2.929.216.125.324.215.216.233A2.792,2.792,0,0,1,5289.457,3778.024Z" transform="translate(-2325.447 -2515.668)"/>
    <path id="Path_54" data-name="Path 54" d="M5144.138,2311.527a8.39,8.39,0,0,1,1.348,0c.359.036.054.072-.683.072S5143.76,2311.563,5144.138,2311.527Z" transform="translate(-2186.957 -1091.526)"/>
    <path id="Path_55" data-name="Path 55" d="M5270.668,2294.8a15.7,15.7,0,0,1,1.869-.162c1.114-.072,1.653-.054,1.438.054A13.342,13.342,0,0,1,5270.668,2294.8Z" transform="translate(-2311.367 -1074.93)"/>
    <path id="Path_56" data-name="Path 56" d="M2975.367,1319.141a1.51,1.51,0,0,1-.611-.431.772.772,0,0,0-.5-.287,3.084,3.084,0,0,1-1.06-.647c-.791-.665-.827-.665-3-.809a33.257,33.257,0,0,1-5.966-.88c-.755-.234-6.02-1.078-6.7-1.078a1.8,1.8,0,0,0-1.114.485l-.575.485-.9-.323a13.577,13.577,0,0,1-2.1-1.06c-1.2-.737-1.2-.737-1.24-1.6a8.591,8.591,0,0,0-1.006-3.288,8.987,8.987,0,0,0-3.217-2.085,5.1,5.1,0,0,1-2.1-1.509,12.94,12.94,0,0,0-2.12-1.761,5.16,5.16,0,0,1-1.438-1.384,23.243,23.243,0,0,0-4.259-3.953,2.631,2.631,0,0,0-1.527-.359,8.437,8.437,0,0,1-5.768-2.246,13.642,13.642,0,0,0-2.767-2.067,8.823,8.823,0,0,1-1.635-1.743,18.5,18.5,0,0,1-1.8-3.828c-.234-.647-1.024-2.372-1.779-3.846a29.2,29.2,0,0,1-1.348-2.911,6.008,6.008,0,0,0-.449-1.258,5.357,5.357,0,0,1-.449-1.348,12.359,12.359,0,0,0-.521-1.9,55.339,55.339,0,0,1-1.617-6.254,39.775,39.775,0,0,1-.683-7.745l-.108-4.151.629-.377c1.222-.755,2.031-2.408,2.57-5.3.359-1.869.305-2.354-.377-3.163-.827-.97-.845-1.437-.162-3.594a16.786,16.786,0,0,0,.934-5.75,3.806,3.806,0,0,1,.575-2.372c.377-.827,1.222-2.39,1.869-3.468a16.957,16.957,0,0,0,1.419-2.7,17.234,17.234,0,0,0,.234-3.073c0-2.767.234-3.432,1.779-4.978a39.265,39.265,0,0,0,4.277-4.96,9.664,9.664,0,0,0,.233-2.192l.018-1.689.9-.7c.485-.377,1.456-1.15,2.139-1.707.7-.575,1.671-1.33,2.174-1.689l.917-.665,1.869.449a19.038,19.038,0,0,0,7.009.431,8.082,8.082,0,0,0,3.252-1.725,9.631,9.631,0,0,0,2.714-2.965,13.45,13.45,0,0,1,1.456-1.8c.359-.341,1.258-1.186,1.977-1.9a12.924,12.924,0,0,1,1.923-1.581,7.512,7.512,0,0,0,.9-.557,8.723,8.723,0,0,1,1.761-.791,7.7,7.7,0,0,1,3.576-.539c2.1.018,2.1.018,3.45.719.737.4,2.1,1.078,3.037,1.527a5.627,5.627,0,0,0,3.558.809,5.353,5.353,0,0,0,2.444-.306c.5-.27,1.078-.306,4.223-.252,3.4.036,3.72.072,4.457.449a4.277,4.277,0,0,1,1.384,1.222,15.4,15.4,0,0,0,2.785,3c.863.611,1.528.773,3.9.917a6.337,6.337,0,0,1,3.558.863,17.241,17.241,0,0,1,1.851,1.1,1.679,1.679,0,0,0,.7.377,13.628,13.628,0,0,1,2.049,1.959c2.138,2.3,3.324,3.145,4.4,3.163a2.162,2.162,0,0,1,1.455.539,9.62,9.62,0,0,0,1.4.9,14.418,14.418,0,0,1,3.181,2.7c.341.4,1.006,1.078,1.456,1.527a17.7,17.7,0,0,1,1.689,2.067c.755,1.078,1.689,2.372,2.911,4.007.18.234.934,1.042,1.689,1.8a17.192,17.192,0,0,1,2.678,3.181,2.087,2.087,0,0,1-.575.629c-.557.485-.575.575-.647,2.138a7.747,7.747,0,0,0,.683,3.882c.09.2.377.916.629,1.6a13.418,13.418,0,0,0,1.042,2.156,16.275,16.275,0,0,1,1.024,1.9,7.488,7.488,0,0,0,.647,1.258c.233.305.521,2.21.809,5.445a119.86,119.86,0,0,1-.611,17.107,22.513,22.513,0,0,1-2.336,6.451c-1.024,1.725-1.2,2.336-1.384,4.96a27.523,27.523,0,0,1-.342,2.875,14.29,14.29,0,0,0,.162,5.535,8.728,8.728,0,0,1,.359,2.156,2.159,2.159,0,0,1-.737,1.887,14.094,14.094,0,0,1-2.228,1.851,15.949,15.949,0,0,0-2.426,1.977l-.952,1.006.144.916c.234,1.689.252,1.617-.539,1.761a7.956,7.956,0,0,0-1.222.323,4.115,4.115,0,0,1-1.2.2,30.084,30.084,0,0,0-6.325,1.491c-.521.234-1.348.575-1.833.755-1.869.683-2.642,1.887-2.911,4.51-.09.844-.2,1.168-.431,1.24a1.859,1.859,0,0,0-1.114,1.617l-.054.719-1.024.126a7.735,7.735,0,0,0-1.995.593,5.292,5.292,0,0,1-1.222.449,9.941,9.941,0,0,0-1.851.809,8.931,8.931,0,0,1-1.958.809,3.266,3.266,0,0,0-1.15.593l-.809.575-3.36.108c-3.091.09-3.468.144-4.96.647a28.6,28.6,0,0,0-2.731,1.1,2.85,2.85,0,0,0-1.689,1.743C2976.122,1319.339,2976.014,1319.411,2975.367,1319.141Zm-.234-9.6c1.618-.539,2.139-.629,2.642-.449a2.662,2.662,0,0,0,1.545-.108,9.572,9.572,0,0,1,1.707-.27c1.258,0,6.523-1.941,7.942-2.911a1.85,1.85,0,0,1,.629-.323,71.764,71.764,0,0,0,6.954-5.589,2.019,2.019,0,0,0,.467-.845,3.078,3.078,0,0,1,1.348-1.474,7.728,7.728,0,0,0,1.456-1.042,17.46,17.46,0,0,1,2.139-1.545,19.92,19.92,0,0,0,2.013-1.4,33.227,33.227,0,0,1,5.445-3.306,12.428,12.428,0,0,0,4.331-3.882c1.51-1.959,2.138-3.36,2.138-4.726a11.145,11.145,0,0,1,.288-2.246,20.673,20.673,0,0,0,.359-3.414,17.136,17.136,0,0,1,.629-4.4,17.151,17.151,0,0,0,.611-5.3c.036-1.725.126-3.81.2-4.618.126-1.42.108-1.474-.4-2.174a2.075,2.075,0,0,0-.97-.809c-.557-.108-.5-.162-.809.881-.144.485-.377,1.24-.521,1.689s-.359,1.258-.467,1.8c-.09.539-.377,1.923-.629,3.055a18.09,18.09,0,0,0-.449,4.6,16.773,16.773,0,0,1-.179,3.055,14.633,14.633,0,0,0-.342,1.9,4.622,4.622,0,0,1-.521,1.887,6.77,6.77,0,0,0-.611,1.132,6.89,6.89,0,0,1-.881,1.366c-.341.4-.97,1.24-1.419,1.887a49.474,49.474,0,0,1-5.769,5.948,18.312,18.312,0,0,1-4.51,3.037,21.624,21.624,0,0,0-5.283,4.492,33.472,33.472,0,0,1-6.02,5.481c-1.923,1.2-2.121,1.186-.359,0a24.476,24.476,0,0,0,3.773-3.4c5-5.265,5.391-5.607,9.093-7.763a16.7,16.7,0,0,0,3.343-2.677,63.746,63.746,0,0,0,4.654-5.068c.144-.216.754-1.024,1.348-1.8,1.527-2.013,2.426-3.72,2.534-4.816a21.2,21.2,0,0,1,.377-2.156,10.158,10.158,0,0,0,.18-3.091,10.212,10.212,0,0,1,.431-4.043c.288-1.2.647-2.839.791-3.648a12.2,12.2,0,0,1,.5-2.085,8.178,8.178,0,0,0,.377-1.294c.126-.647.108-.683-.377-.7-.27,0-1.833-.108-3.468-.216-1.635-.126-3.127-.2-3.342-.162-.342.054-.4.2-.485,1.923a15.287,15.287,0,0,0-.018,2.408,31.612,31.612,0,0,1-.036,3.917l-.162,3.378-.108-4.4c-.054-2.426-.054-5.086,0-5.912l.126-1.51-2.264.126c-3.684.18-3.414.054-3.989,1.869a31.084,31.084,0,0,0-1.186,6.954,11.232,11.232,0,0,1-.683,4.6,19.95,19.95,0,0,1-6.865,7.08,14.962,14.962,0,0,0-3.63,2.983c-3.181,3.127-3.594,3.253-.611.18,2.049-2.1,2.642-2.606,3.9-3.271a10.9,10.9,0,0,0,2.714-2.049,33.325,33.325,0,0,0,4.115-5.211,15.606,15.606,0,0,0,.772-5,33.05,33.05,0,0,1,1.06-6.361,5.483,5.483,0,0,0,.27-1.042c0-.359-1.366-.521-3.109-.359a11.5,11.5,0,0,1-3.935-.054,14.769,14.769,0,0,0-1.779-.287l-1.024-.108-.126,1.851c-.18,2.8-.611,7.116-.809,8.1a13.841,13.841,0,0,1-2.821,5.014c-1.06,1.258-1.492,1.617-1.492,1.258a6.537,6.537,0,0,1,.863-1.15c2.192-2.57,2.893-4.439,3.36-9.021.251-2.534.485-4.349.737-5.553l.108-.5h-2.516c-3.576,0-3.522-.018-3.9,1.33-1.312,4.744-2.7,7.943-3.648,8.464a6.367,6.367,0,0,0-.916.629l-.431.359.4,1.006a12.816,12.816,0,0,0,2.839,3.864c1.024.97,4.1,2.66,4.888,2.677.413.018-2.983,1.6-3.846,1.8-.4.09-1.6.377-2.7.611a30.911,30.911,0,0,1-8.536.9,22.066,22.066,0,0,1-3.414-.341,12.979,12.979,0,0,0-1.617-.341,12.123,12.123,0,0,1-1.42-.306c-.557-.2-.593-.234-.5-.863.072-.359.2-1.186.288-1.851a22.57,22.57,0,0,1,.844-3.055,40.334,40.334,0,0,0,2.408-9.578c.09-.683.234-1.869.323-2.642a10.917,10.917,0,0,0,.108-1.8c-.521-3.612-1.078-5.571-1.851-6.541a1.66,1.66,0,0,1-.377-.827c0-.521-.593-.126-1.258.863-.7.988-.611,1.366.629,2.893a13.606,13.606,0,0,1,1.114,1.563,5.122,5.122,0,0,0,.755,1.078c.359.4.4.467.108.323a4.978,4.978,0,0,1-1.545-1.689c-.234-.359-.773-1.1-1.2-1.635a5.051,5.051,0,0,1-.88-1.617c-.072-.539,0-.719.593-1.384a4.6,4.6,0,0,1,1.1-.917.577.577,0,0,0,.414-.575c0-.575.323-.845,1.06-.845a11.4,11.4,0,0,0,1.725-.27,22.862,22.862,0,0,1,3-.377c1.851-.126,1.941-.144,1.671-.449a11.268,11.268,0,0,0-2.246-1.078c-1.078-.431-1.869-.844-1.761-.9a1.557,1.557,0,0,1,.934.2c.413.18,1.294.557,1.959.827a4.774,4.774,0,0,1,1.563.916c.4.5,2.21.863,5.732,1.132a22.211,22.211,0,0,1,2.282.234,11.57,11.57,0,0,1-.2,1.743c-.359,2.282-.377,2.156.467,2.156h.737l-.126-1.384c-.216-2.192-1.222-4.025-3.576-6.523-.9-.953-.934-1.006-.2-.306a4.94,4.94,0,0,0,1.078.845,11.9,11.9,0,0,1,2.372,3.324,6.886,6.886,0,0,1,.593,2.48l.09,1.4,1.348.036c.737,0,2.175,0,3.2-.018l1.833-.036v-.665a12.486,12.486,0,0,0-.2-1.761c-.108-.593-.287-1.923-.413-2.965a12.354,12.354,0,0,0-.431-2.282c-.126-.234-.18-.413-.126-.413a3.676,3.676,0,0,1,.521.952,6.011,6.011,0,0,1,.449,2.3,10.55,10.55,0,0,0,.288,2.246,7.47,7.47,0,0,1,.27,1.761v.881l2.3-.108c1.258-.072,3.486-.18,4.942-.234l2.659-.126-.125-.557a21.5,21.5,0,0,0-1.006-2.534c-.485-1.078-1.168-2.642-1.492-3.45a20.174,20.174,0,0,0-1.222-2.426c-.323-.521-.952-1.6-1.384-2.39a54.935,54.935,0,0,0-3.846-5.84c-.539-.611-.539-.629-.054-.18,1.15,1.006,4.924,7.062,6.577,10.512,1.042,2.174,2.893,6.469,2.893,6.739,0,.162.179.2.683.108.359-.054,1.9-.108,3.432-.108h2.75l-.108-2.282c-.342-6.415-1.366-11.285-2.767-13.046-.359-.449-.953-1.24-1.294-1.743a13.124,13.124,0,0,0-1.941-1.977,14.759,14.759,0,0,1-1.851-1.851c-3.037-4.241-8.159-9.093-9.632-9.111a.479.479,0,0,1-.359-.234c-.288-.485-1.959-.934-4.78-1.294-1.114-.144-2.5-.341-3.091-.449a36.66,36.66,0,0,0-5.571-.719c-.593,0-2.21-.126-3.594-.27s-3.936-.341-5.661-.431l-3.145-.162,3.684.09c2.031.036,4.331.162,5.122.251s2.659.252,4.133.342c1.492.09,3.917.359,5.391.611,1.491.234,3.145.485,3.684.557a16.218,16.218,0,0,1,4.492,1.042c.431.216.97.5,1.24.647a6.993,6.993,0,0,1,1.132.863,9.024,9.024,0,0,0,.988.845,5.662,5.662,0,0,1,2.21,1.9,70.849,70.849,0,0,0,6.325,7.368,26.923,26.923,0,0,1,2.354,2.534c.305.467.791,1.114,1.042,1.438,1.24,1.617,2.318,7.4,2.318,12.435v2.462l2.39-.018c1.294,0,3.63-.108,5.139-.216l2.785-.216.449-.9a4.88,4.88,0,0,0,.521-2.552c.09-1.995-.054-2.426-1.438-4.439a11.9,11.9,0,0,1-1.995-3.881,19.725,19.725,0,0,1-1.384-5.247,10.06,10.06,0,0,0-2.39-5.553,9.965,9.965,0,0,1-1.258-1.977,16.6,16.6,0,0,0-1.348-2.228,30.682,30.682,0,0,0-5.876-5.068,20.411,20.411,0,0,1-2.156-1.6,13.794,13.794,0,0,0-2.426-1.491,10.475,10.475,0,0,0-3.234-1.258,21.873,21.873,0,0,1-2.336-.539,7.36,7.36,0,0,0-1.653-.377,12.933,12.933,0,0,1-4.079-2.1,14.03,14.03,0,0,1-2.48-2.534,3.288,3.288,0,0,0-1.024-.755c-.4-.2-1.1-.557-1.545-.809a3.807,3.807,0,0,0-1.348-.449,13.183,13.183,0,0,1-2.067-.4,14,14,0,0,0-6.739-.018,64.987,64.987,0,0,1-6.757,1.563,5.094,5.094,0,0,0-2.768,1.132c-1.9,1.366-2.084,1.455-3.594,1.761a13.8,13.8,0,0,0-2.174.629,26.549,26.549,0,0,1-2.785.809c-1.132.27-2.857.683-3.846.934s-2.282.557-2.875.7a17,17,0,0,0-2.821,1.06,12.836,12.836,0,0,1-2.031.809,6.434,6.434,0,0,0-1.312.431,9.531,9.531,0,0,1-1.923.557,7.286,7.286,0,0,0-4.043,1.527,2.445,2.445,0,0,0-.719,1.06,2.752,2.752,0,0,1-.467,1.006c-.251.377-.647,1.06-.88,1.509-.216.449-.593,1.186-.827,1.635-.216.449-.863,1.617-1.437,2.606a13.067,13.067,0,0,0-1.15,2.48,17.1,17.1,0,0,1-1.869,4.331c-.18.216-.881,1.2-1.545,2.228-.665,1.006-1.276,1.869-1.348,1.923a18.934,18.934,0,0,0-1.635,4.618,16.054,16.054,0,0,0-.323,3.864c.018,2.965.27,3.9,1.348,5.032a9.807,9.807,0,0,1,1.546,2.39,4.892,4.892,0,0,1,.7,2.875c-.036,1.923-.054,2.857-.036,3.684a9.471,9.471,0,0,1-.431,2.246c-.234.845-.611,2.5-.827,3.684a17.406,17.406,0,0,0-.251,5.121c.072,1.635.144,3.971.18,5.211a13.575,13.575,0,0,0,1.186,5.786,26.879,26.879,0,0,0,3.917,6.128,22.48,22.48,0,0,0,4.51,3.486c.845.485,2.39,1.51,3.45,2.264a8.854,8.854,0,0,0,2.606,1.474,9.89,9.89,0,0,1,3.845,2.516,4.336,4.336,0,0,0,2.965,1.527,1.322,1.322,0,0,1,.826.647c1.078,1.51,5.517,4.043,8.823,5.032a25.853,25.853,0,0,1,4.169,1.527c.2.09,1.653.5,3.235.9a21.419,21.419,0,0,0,5.391.881c1.384.054,2.7.126,2.911.144A3.771,3.771,0,0,0,2975.133,1309.545Zm5.193-42.1c1.186-.773,2.1-2.821,3.5-7.763a8.6,8.6,0,0,0,.359-1.6,5.629,5.629,0,0,0-1.258.054c-1.168.126-1.2.144-1.833,1.024a12.2,12.2,0,0,0-1.761,7.943,2.379,2.379,0,0,0,.2.827A5.969,5.969,0,0,0,2980.326,1267.442Z"/>
    <path id="Path_57" data-name="Path 57" d="M6164.138,7071.527a8.39,8.39,0,0,1,1.348,0c.359.036.054.072-.683.072S6163.76,7071.563,6164.138,7071.527Z" transform="translate(-3188.627 -5765.989)"/>
    <path id="Path_58" data-name="Path 58" d="M3621.164,1986.469c-1.042-.323-2.7-.737-3.684-.917-4.259-.755-8.625-2.893-13.028-6.415a26.966,26.966,0,0,0-7.907-4.079,25.5,25.5,0,0,1-4.924-1.851c-5.229-2.606-9.452-7.332-10.728-11.986-.27-.952-.737-2.534-1.042-3.522a33.341,33.341,0,0,1-1.635-7.1c-.126-1.132-.216-2.138-.216-2.246.162-4.151.4-8.212.485-8.356.072-.108.144-2.516.162-5.355.054-6.164-.108-5.589,2.911-11.626,2.031-4.079,2.049-4.169,2.534-6.649a9.389,9.389,0,0,1,.809-2.893c.27-.306.323-.665.306-2.156a5.815,5.815,0,0,1,.431-2.911,21.739,21.739,0,0,1,3.145-5.121,34.721,34.721,0,0,1,4.924-3.271,23.872,23.872,0,0,1,9.308-2.336,14.342,14.342,0,0,0,6.164-1.545c3.414-1.545,5.319-1.869,11.447-2.031a31.053,31.053,0,0,1,5.391.144c.97.144,1.563.162,1.635.054a.8.8,0,0,1,.539-.162,22.342,22.342,0,0,1,4.546.953,24.622,24.622,0,0,0,3.055.791,18.846,18.846,0,0,1,3.954,1.258c1.006.467,2.138.988,2.552,1.168a14.931,14.931,0,0,1,3.486,2.785,14.308,14.308,0,0,0,1.168,1.168c.377.341.917.863,1.168,1.15.251.27,1.312,1.348,2.354,2.39a37.443,37.443,0,0,1,2.66,2.893,63.081,63.081,0,0,1,4.438,6.685c.773,1.33,1.779,3,2.246,3.72a16.491,16.491,0,0,1,2.139,4.187c.27.737,1.06,2.606,1.761,4.133a20.65,20.65,0,0,1,1.923,5.337c.126.863.018,1.168-.359,1.006-.162-.054-.27-.323-.27-.665a19.2,19.2,0,0,0-1.869-6c-.629-1.366-1.348-3.019-1.617-3.72a21.3,21.3,0,0,0-2.444-4.87c-.647-1.024-1.527-2.5-1.977-3.307-.773-1.384-3.217-5.086-4.528-6.811a14.593,14.593,0,0,0-2.929-2.947,13.962,13.962,0,0,1-1.527-1.437c-1.815-2.354-4.151-4.529-5.535-5.157-.665-.323-1.563-.755-2.012-.988a15.766,15.766,0,0,0-4.313-1.438,30.67,30.67,0,0,1-3.109-.827c-2.318-.791-5.768-1.4-4.978-.88.323.216-.216.216-2.857.018a15.247,15.247,0,0,0-2.606,0c-.413.072-1.995.18-3.522.252a24.565,24.565,0,0,0-7.781,1.366c-.809.305-1.977.755-2.605.988a18.355,18.355,0,0,1-5.7.791,21.812,21.812,0,0,0-10.512,2.929c-2.624,1.492-3.5,2.246-4.726,4.061a12.054,12.054,0,0,0-2.282,7.278c0,.629-.09,1.042-.27,1.186a.911.911,0,0,0-.27.593,26.882,26.882,0,0,1-.844,3.81c-.27,1.078-.575,1.743-2.821,6.11a35.565,35.565,0,0,0-1.671,3.774c-.467,1.4-.485,1.563-.5,6.29-.018,2.677-.126,5.589-.234,6.469-.108.9-.2,2.264-.2,3.055s-.054,2.013-.108,2.7c-.234,2.48.341,5.948,1.743,10.512.5,1.635,1.1,3.594,1.33,4.367,1.006,3.378,4.169,7.386,7.835,9.884a21.964,21.964,0,0,0,7.691,3.54,27.678,27.678,0,0,1,8,4.151,37.43,37.43,0,0,0,9.452,5.75,21.085,21.085,0,0,0,4.457,1.06c.629.018,4.906,1.42,4.331,1.42A15.187,15.187,0,0,1,3621.164,1986.469Z" transform="translate(-649.122 -681.596)"/>
    <path id="Path_59" data-name="Path 59" d="M6308.747,7061.527a1.84,1.84,0,0,1,.629,0c.162.054.018.09-.324.09S6308.567,7061.581,6308.747,7061.527Z" transform="translate(-3330.721 -5756.169)"/>
    <path id="Path_60" data-name="Path 60" d="M6419.006,6931.1c1.168-.611,2.174-1.1,2.246-1.1a28.43,28.43,0,0,1-3.9,2.067C6417.1,6932.139,6417.856,6931.707,6419.006,6931.1Z" transform="translate(-3437.404 -5627.032)"/>
    <path id="Path_61" data-name="Path 61" d="M6654.688,6881.432a5.039,5.039,0,0,1,.988-.432c.108,0-.179.2-.629.432a4.61,4.61,0,0,1-.988.431C6653.969,6881.862,6654.239,6881.665,6654.688,6881.432Z" transform="translate(-3669.887 -5578.913)"/>
    <path id="Path_62" data-name="Path 62" d="M3914.568,2408.392c-1.581-.377-2.12-.629-8.32-3.684-3.235-1.6-5.157-3.109-8.41-6.577-1.474-1.563-3.864-4.079-5.3-5.571a18.971,18.971,0,0,1-3.091-3.72,39.724,39.724,0,0,1-1.474-4.4,25.042,25.042,0,0,0-2.066-5.5,14.315,14.315,0,0,1-1.078-2.426,3.839,3.839,0,0,0-.809-1.312,8.869,8.869,0,0,1-1.833-4.654,11.233,11.233,0,0,1,.036-4.4,23.347,23.347,0,0,1,2.642-8.733,15.5,15.5,0,0,0,1.707-4.726,20.08,20.08,0,0,1,2.246-6.343c.4-.683.97-1.689,1.276-2.228a21.176,21.176,0,0,1,2.426-3.468,2.034,2.034,0,0,0,.5-.773,1.61,1.61,0,0,1,.4-.683c.2-.2.539-.593.773-.844a13.08,13.08,0,0,1,1.42-1.186c.539-.413,1.276-1.006,1.617-1.312a16.619,16.619,0,0,1,5.571-3.145c.521-.072.539-.054.18.072a18.372,18.372,0,0,0-5.211,3.091c-.054.054-.629.521-1.294,1.006-1.9,1.42-3.037,2.516-3.091,3a1.945,1.945,0,0,1-.449.844,19.72,19.72,0,0,0-2.354,3.666c-.431.791-1.06,1.941-1.384,2.552a20.388,20.388,0,0,0-1.869,5.355,15.232,15.232,0,0,1-1.563,4.043c-2.049,3.828-2.767,5.75-3.2,8.626-.683,4.582-.072,7.979,1.833,10.261a2.994,2.994,0,0,1,.611.934,19.681,19.681,0,0,0,1.078,2.372,27.472,27.472,0,0,1,1.995,5.391c1.2,4.187,1.6,4.96,3.612,6.99.9.9,2.336,2.408,3.181,3.342a90.831,90.831,0,0,0,6.757,6.9c1.582,1.276,3.486,2.336,7.817,4.367,4.564,2.156,6.038,2.57,9.129,2.57a13.623,13.623,0,0,0,4.025-.521,17.927,17.927,0,0,0,7.511-3.756,29.688,29.688,0,0,1,6.11-2.642c4.636-1.06,7.961-2.606,10.333-4.8,1.15-1.042,3.953-3.109,3.5-2.588a8.558,8.558,0,0,1-1.294,1.042,26.529,26.529,0,0,0-2.534,2.031,23.267,23.267,0,0,1-10.009,5,22.386,22.386,0,0,0-8,3.971,21.326,21.326,0,0,1-5.319,2.372A18.676,18.676,0,0,1,3914.568,2408.392Z" transform="translate(-947.648 -1112.307)"/>
    <path id="Path_63" data-name="Path 63" d="M6107.109,5982.535c-1.653-.54-1.294-.557.539,0,.79.234,1.275.431,1.078.431A9.1,9.1,0,0,1,6107.109,5982.535Z" transform="translate(-3131.742 -4696.188)"/>
    <path id="Path_64" data-name="Path 64" d="M6470.018,5974.181a4.539,4.539,0,0,1,1.24-.575,3.226,3.226,0,0,1-1.186.647C6470,5974.253,6469.982,5974.217,6470.018,5974.181Z" transform="translate(-3489.153 -4687.816)"/>
    <path id="Path_65" data-name="Path 65" d="M4400.912,2733.941a24.748,24.748,0,0,1-6.685-3.45,18.328,18.328,0,0,0-1.959-1.24,30.3,30.3,0,0,0-5.014-1.869c-4.475-1.042-9.56-5.319-10.782-9.057-.18-.557-.629-1.743-.988-2.642-1.15-2.821-1.761-5.283-1.617-6.577.036-.251.108-2.713.18-5.481a31.09,31.09,0,0,1,.4-5.715,28.821,28.821,0,0,1,1.653-3.145,14.169,14.169,0,0,0,1.815-4.062,8.592,8.592,0,0,1,.647-1.9,1.635,1.635,0,0,0,.251-.952,9.407,9.407,0,0,1,2.408-5.175,20.545,20.545,0,0,1,4.493-3.109,14.254,14.254,0,0,1,4.331-1.258,11.912,11.912,0,0,0,4.259-1.42,13.793,13.793,0,0,1,2.121-.917c2.57-.755,10.351-.97,12.579-.359.539.144,1.707.449,2.605.647a20.809,20.809,0,0,1,3.468,1.294c1.761.826,2,1.024,3.9,2.983,1.132,1.15,2.21,2.336,2.444,2.624.4.539-.647-.5-3.019-3.019a8.727,8.727,0,0,0-3.073-2.264,13.737,13.737,0,0,0-3.145-1.168,17.1,17.1,0,0,1-1.779-.467,11.859,11.859,0,0,0-3.756-.683c-.09.125-.629.144-1.6.072a12.918,12.918,0,0,0-2.659.054c-.665.09-1.977.27-2.929.377a13.757,13.757,0,0,0-4.78,1.33,11.628,11.628,0,0,1-4.1,1.1,14.293,14.293,0,0,0-9.327,4.439,10.125,10.125,0,0,0-2.084,4.546,6.858,6.858,0,0,1-.341,1.438,11.409,11.409,0,0,0-.629,1.833,16.215,16.215,0,0,1-1.815,3.953,20.9,20.9,0,0,0-1.617,3.2c-.215.7-.287,2.282-.306,7.1l-.054,6.2.485,1.438c.251.791.772,2.174,1.132,3.055.378.9.809,2.048,1.007,2.57a14.65,14.65,0,0,0,3.486,4.852,18.3,18.3,0,0,0,8.176,4.277,25.646,25.646,0,0,1,6.236,2.983,26.589,26.589,0,0,0,7.475,3.828c.719.18.809.252.4.252A7.59,7.59,0,0,1,4400.912,2733.941Z" transform="translate(-1430.667 -1448.745)"/>
    <path id="Path_66" data-name="Path 66" d="M4629.376,3074.631a15.069,15.069,0,0,1-1.8-.935c-.4-.251-1.186-.7-1.726-.97a24.128,24.128,0,0,1-2.336-1.492c-.737-.557-1.743-1.258-2.246-1.6a13.331,13.331,0,0,1-1.959-1.887,4.994,4.994,0,0,0-1.312-1.276c-.521,0-1.833-1.6-2.624-3.217a18.919,18.919,0,0,1-.934-2.049c-.072-.216-.359-.9-.647-1.509a7.747,7.747,0,0,1-.719-3.235,8.054,8.054,0,0,1,.341-4.1,85.263,85.263,0,0,1,2.911-8.553,19.36,19.36,0,0,1,5.643-6.182c1.4-1.024,3.234-2.5,4.636-3.72a22.949,22.949,0,0,1,5.139-3.2,9.466,9.466,0,0,1,5.248.036c.647.2,2.1.629,3.235.952,2.893.826,5.031,1.689,5.031,1.977,0,.054-.306-.054-.683-.252a24.765,24.765,0,0,0-2.552-.917c-1.042-.305-2.66-.809-3.594-1.114a9.075,9.075,0,0,0-3.684-.575c-1.958-.018-1.995,0-3.325.683a27.3,27.3,0,0,0-5,3.361c-.863.7-2.408,1.833-3.45,2.534-3.36,2.282-5.085,4.043-6.326,6.523a65.325,65.325,0,0,0-3.037,8.841c-.485,2.229-.162,5.822.665,7.152a4.808,4.808,0,0,1,.341.809,22.1,22.1,0,0,0,2.39,4.51,5.068,5.068,0,0,0,1.114.97c.575.306.737.432,1.708,1.618a7.958,7.958,0,0,0,2.156,1.977,45.248,45.248,0,0,0,7.17,4.4C4631.191,3075.224,4631.317,3075.458,4629.376,3074.631Z" transform="translate(-1665.492 -1797.468)"/>
    <path id="Path_67" data-name="Path 67" d="M4990.19,3479.082a7.15,7.15,0,0,1-2.911-2.462,17.593,17.593,0,0,0-2.66-3.306c-1.456-1.24-3.252-4.546-3.953-7.224a19.437,19.437,0,0,1,.162-6.056c.557-2.642,1.419-3.935,5.229-7.727,2.264-2.264,2.229-2.264,5.858-2.929a24.441,24.441,0,0,1,5.014-.377,27.387,27.387,0,0,1,3.109.09,14.372,14.372,0,0,1-2.5.108c-1.419,0-3.145.09-3.846.18a28.951,28.951,0,0,0-4.959,1.006,46.2,46.2,0,0,0-5.786,5.8c-1.4,1.869-1.653,2.677-1.923,6.218-.18,2.264-.054,3.792.377,4.564.089.162.4.953.7,1.743a6.736,6.736,0,0,0,.9,1.779,1.112,1.112,0,0,1,.359.485,10.19,10.19,0,0,0,1.887,2.444,11.292,11.292,0,0,1,2.121,2.749,6.594,6.594,0,0,0,3.989,3.055l.719.108-.629.018A3.513,3.513,0,0,1,4990.19,3479.082Z" transform="translate(-2026.414 -2208.585)"/>
    <path id="Path_68" data-name="Path 68" d="M5289.457,3778.024c-.772-.467-1.1-.988-1.707-2.821a27.993,27.993,0,0,0-1.635-3.54c-1.078-1.923-1.114-2.049-1.114-3.253a3.619,3.619,0,0,1,.539-2.228,13.23,13.23,0,0,1,1.384-1.923,3.628,3.628,0,0,1,2.066-1.276,32.251,32.251,0,0,1,5.643-1.276c.413.054-1.689.683-4.385,1.294a4.526,4.526,0,0,0-3.181,1.833c-1.294,1.581-1.617,2.318-1.617,3.7a4.061,4.061,0,0,0,.647,2.426c.359.665.827,1.509,1.06,1.851a15.034,15.034,0,0,1,1.079,2.408c.665,1.833,1.1,2.552,1.761,2.929.216.125.324.215.216.233A2.792,2.792,0,0,1,5289.457,3778.024Z" transform="translate(-2325.447 -2515.668)"/>
    <path id="Path_69" data-name="Path 69" d="M5144.138,2311.527a8.39,8.39,0,0,1,1.348,0c.359.036.054.072-.683.072S5143.76,2311.563,5144.138,2311.527Z" transform="translate(-2186.957 -1091.526)"/>
    <path id="Path_70" data-name="Path 70" d="M5270.668,2294.8a15.7,15.7,0,0,1,1.869-.162c1.114-.072,1.653-.054,1.438.054A13.342,13.342,0,0,1,5270.668,2294.8Z" transform="translate(-2311.367 -1074.93)"/>
  </g>
</svg>
