<svg xmlns="http://www.w3.org/2000/svg" width="8543.156" height="9401.059" viewBox="0 0 8543.156 9401.059"><g transform="translate(-1.5 1511.905)"><path d="M3536-1506.27c-6.845,3.111-20.535,5.6-29.869,5.6-19.29.622-139.389,34.847-149.967,43.559-3.734,2.489-26.135,12.445-50.4,21.779-23.646,9.334-52.893,24.891-65.338,34.225-11.823,9.335-39.825,28-62.227,41.07-22.4,13.689-46.048,29.247-53.515,35.47-6.845,6.223-14.935,11.2-18.668,11.2-8.09,0-143.123,140.011-156.19,161.791-5.6,10.578-15.557,18.668-21.157,18.668s-26.758,18.046-47.293,39.826c-21.157,21.78-41.692,42.314-46.67,44.8-4.978,3.111-15.557,15.557-23.646,27.38s-18.668,23.645-23.024,26.757c-4.356,2.49-17.424,23.647-29.869,47.293s-27.38,47.915-32.98,54.138c-6.223,6.844-19.29,23.024-29.247,36.714-10.578,13.69-19.913,26.135-21.779,28s-10.579,13.068-19.913,26.136c-20.535,26.758-28,34.846-52.271,52.893C2429.6-620.157,2381.064-592.154,2289.59-569.753c-69.072,16.8-71.561,16.8-230.24,14.312-154.323-3.111-162.413-3.733-234.6-22.4-127.565-33.6-240.2-57.249-247.664-52.894-41.07,23.647-164.9,116.365-220.906,164.28-38.581,33.6-102.675,85.874-143.122,116.365-39.825,31.113-84.006,67.206-97.074,80.9l-24.269,25.514,8.09,37.959c17.424,80.895-6.845,238.329-44.8,292.467-31.113,44.181-181.081,212.195-268.821,301.179C667.33,509.265,633.727,557.8,610.7,643.675c-13.69,51.648-14.935,115.742-2.489,191.659,9.334,59.739,6.223,91.475-19.913,206.594-13.69,61.605-59.738,156.812-121.965,252.02C387.93,1414.669,332.548,1521.7,287.122,1641.175c-14.935,38.581-14.935,39.825-5.6,80.895,11.2,46.048,9.956,67.828-9.956,197.26-18.668,120.1-35.469,194.771-52.271,236.463-8.09,20.535-23.024,65.961-33.6,101.43-10.579,34.847-21.157,68.449-24.891,74.05-3.734,7.467-3.111,16.179,2.489,26.758,4.356,8.712,9.956,27.38,12.445,41.692,3.111,19.29,13.69,37.958,40.448,70.317,23.024,27.38,39.2,53.515,43.559,69.694,3.734,14.934,8.09,31.736,9.956,37.958,3.734,11.823-6.223,84.007-19.29,147.478-4.978,22.4-13.068,64.094-18.668,92.718-5.6,29.247-14.934,60.983-19.913,71.561-5.6,10.579-14.934,37.958-20.535,60.36-6.845,27.38-21.779,56.627-42.937,88.363-41.07,60.982-65.961,85.873-110.764,109.52L1.5,3166.983l.622,250.775c.622,238.952,8.09,392.031,21.157,448.035,3.111,14.312,10.579,65.338,15.557,113.253,5.6,47.915,15.557,108.275,21.779,135.033,6.845,26.135,12.445,57.248,12.445,69.072s4.978,37.958,11.823,57.871c6.223,20.535,18.668,69.072,28,108.275,18.046,77.162,42.937,164.279,57.249,199.127,4.356,11.823,11.823,35.469,15.557,52.893,4.356,16.8,13.068,42.314,19.913,56,16.8,33.6,29.247,81.518,29.247,115.12,0,18.668,5.6,36.714,15.557,52.893,8.712,13.69,15.557,28.625,15.557,33.6s5.6,20.535,11.823,34.225c6.845,14.312,19.29,52.271,28.624,84.629s24.891,70.317,34.225,84.006,19.29,31.736,21.779,40.448,9.956,22.4,15.557,31.114c17.424,24.891,41.692,71.561,46.048,90.229,2.489,9.957,12.445,29.247,21.779,42.937,9.334,14.312,19.29,33.6,21.779,43.559s12.445,29.869,23.024,44.8c9.956,14.312,18.046,28.624,18.046,31.113s5.6,16.179,11.823,29.869c13.69,28,32.98,84.006,44.181,128.188,3.734,15.557,13.69,37.958,21.157,49.781,8.09,11.823,16.179,29.869,18.668,40.448,2.489,9.957,10.579,28.625,18.668,40.448s16.179,29.247,18.668,39.2c1.867,9.334,14.934,31.735,28.624,49.781,13.69,17.424,24.891,34.847,24.891,37.958,0,6.223,114.5,121.965,121.343,121.965,4.978,0,115.742,76.539,143.122,98.319,10.579,8.712,46.048,40.448,79.028,71.561,33.6,30.491,76.539,65.338,95.83,77.162,89.607,54.137,218.417,88.984,328.559,88.984,105.786,0,137.522,13.068,222.773,93.341,26.758,24.268,62.849,56,80.9,70.316,87.74,68.45,141.878,123.832,185.437,190.415,33.6,51.026,49.159,69.695,66.583,77.784,57.249,27.38,116.987,74.051,201.616,157.435,49.782,49.16,95.83,92.719,102.675,97.7,6.223,4.356,40.448,17.424,75.295,28,35.469,11.2,80.273,30.492,100.808,43.56,47.292,28.625,125.076,92.718,145.612,120.1,35.469,46.048,77.161,185.437,80.9,268.2l2.489,57.249,36.714,22.4c135.655,85.251,192.281,114.5,248.286,130.055l49.159,13.068,11.2-14.312c6.223-8.089,11.2-16.179,11.2-18.046,0-9.334,49.782-35.47,77.784-41.692,30.491-6.223,54.76-4.355,143.122,10.579,20.535,3.734,79.028,11.823,129.432,18.668s94.585,14.312,97.074,16.179c3.111,1.867,27.38,6.223,54.138,9.957,27.38,3.111,81.517,14.312,120.72,24.268,65.961,16.8,123.21,28.625,213.439,43.559,19.29,3.734,51.649,9.334,71.561,12.445,67.206,11.823,147.478,18.668,230.24,18.668,45.426,0,95.83,3.111,112.009,7.468,28,6.845,65.338,28,91.474,52.893,28.625,26.758,57.871,44.8,83.385,51.649,17.423,4.355,35.469,16.179,52.893,34.225,21.157,21.157,32.358,28,54.76,31.114,27.38,4.356,29.247,3.733,38.581-14.312,4.978-9.957,16.179-26.758,24.269-36.092,8.712-9.956,20.535-34.225,26.758-54.76,18.668-60.36,40.447-78.406,166.769-141.878,41.069-20.535,69.694-30.491,128.188-45.425,22.4-5.6,46.67-14.312,53.516-18.668,7.467-4.979,42.937-16.8,77.784-26.136,64.094-16.8,67.205-17.423,301.179-20.535,233.352-3.111,237.085-3.111,267.577-18.046,26.757-13.068,67.828-39.2,77.784-50.4,14.312-16.179,47.915-31.736,84.629-39.2,23.646-4.979,49.159-11.824,55.382-15.557,6.846-3.734,39.2-19.291,71.561-34.847s74.051-36.715,92.1-46.671,54.138-23.024,80.9-28.624c29.869-6.845,63.472-19.291,88.363-34.226,43.559-25.512,100.808-40.447,181.081-47.292,41.692-3.733,49.159-6.223,55.382-18.668,4.356-7.467,6.223-18.668,3.733-24.891-1.866-5.6-.622-27.38,3.734-48.537,6.845-31.736,12.446-42.314,36.713-67.205,19.914-19.291,36.714-30.491,51.648-32.981,21.158-4.355,22.4-5.6,22.4-28.625,0-31.113,28.625-205.971,39.2-242.685,14.312-46.671,56.626-102.675,102.674-135.655,32.98-23.646,96.452-52.271,140.011-63.472,23.646-5.6,53.515-18.045,67.2-26.758,13.069-8.711,26.758-16.179,30.492-16.179s19.913-6.845,36.092-14.312c64.716-32.358,407.587-105.786,466.7-100.186,30.492,3.111,45.426,0,100.808-19.29,36.714-13.068,83.385-24.269,107.031-26.136,34.847-3.111,41.691-5.6,44.8-16.179,1.868-6.845.623-17.423-2.489-23.024s-11.2-32.98-18.668-61.6c-11.2-45.426-12.446-56-5.6-87.118,9.957-47.915,29.869-74.673,103.92-135.655,15.557-13.067,34.847-29.869,42.937-37.336,8.089-8.089,32.358-26.135,53.515-40.448s41.692-29.246,46.048-33.6c4.355-3.733,32.358-22.4,62.227-40.447,60.982-36.714,108.9-81.518,153.7-144.367l29.87-42.937-2.489-93.963c-3.111-91.474-3.733-97.074-27.38-159.923l-24.269-65.338V5220.477c0-153.7,5.6-207.838,28.625-275.666,11.2-32.358,14.313-62.227,18.668-179.836,6.223-163.035,19.913-234.6,56-292.467,11.2-18.046,32.359-54.138,46.671-79.651s34.848-62.849,46.048-82.762,25.514-49.782,31.736-67.206c6.223-16.8,16.8-44.181,23.024-60.36,6.845-16.8,16.8-51.026,23.023-76.54s15.557-56,21.78-67.827c15.557-32.358,22.4-62.227,37.336-155.568,7.468-46.048,17.424-106.408,22.4-133.788,4.356-27.38,11.2-139.389,14.935-248.908s9.956-219.039,13.69-242.686c5.6-29.869,7.467-140.011,7.467-354.694-.622-310.513-7.467-510.885-20.535-567.511-12.445-56.626-25.513-143.744-25.513-172.991,0-23.024-3.733-34.225-18.668-52.893-9.957-13.068-34.226-57.871-52.894-100.186-19.29-42.314-38.58-84.007-43.559-92.718s-13.689-24.891-18.669-36.714c-5.6-11.2-18.045-28-27.379-37.336-9.957-8.711-26.758-37.336-37.959-62.849-10.578-25.513-24.269-56.627-29.246-68.45-5.6-11.824-19.29-48.537-30.492-80.9-28.624-82.14-51.649-143.744-57.872-158.679-15.557-34.225-20.535-93.341-17.423-205.972,2.49-126.943,9.334-164.28,29.247-164.28,6.845,0,12.446-4.356,12.446-9.334a9.57,9.57,0,0,1,9.334-9.334,9.571,9.571,0,0,0,9.334-9.334c0-4.979,5.6-9.334,12.445-9.334,9.955,0,12.445-4.356,12.445-21.779,0-20.535-25.514-64.094-56-97.074-4.978-5.6-32.98-36.092-62.228-67.828-74.672-81.517-125.076-131.921-148.1-148.723-11.2-7.467-28.625-26.758-39.826-42.936-10.579-16.179-24.891-32.98-30.491-36.714-5.6-4.355-20.536-25.513-32.358-46.67-12.445-21.779-44.8-65.961-72.184-98.941s-51.647-66.583-53.515-75.3c-2.49-9.334-11.2-22.4-19.291-30.49-8.09-7.467-14.934-17.424-14.934-22.4,0-4.355-5.6-11.2-13.068-15.557-6.845-4.355-23.023-24.891-36.092-45.425s-28.625-41.07-34.225-46.048c-5.6-4.355-9.957-12.445-9.957-16.8,0-13.068-85.25-95.83-98.941-95.83-6.223,0-13.69-4.978-15.557-11.2-6.844-19.29-19.29-37.337-40.447-58.494-11.2-11.2-31.736-35.469-45.425-53.515C7413.367,14.559,7400.3-.375,7397.811-.375S7377.9-15.31,7359.229-33.356c-79.651-74.672-117.608-106.408-138.766-113.253-12.445-4.356-29.869-13.067-38.581-19.29-23.646-16.8-28-19.291-50.4-27.38-16.8-6.223-85.252-54.76-95.208-67.205-16.8-22.4-29.869-26.757-57.871-19.291-41.693,9.956-84.007-1.244-141.256-38.58-53.515-34.848-168.635-144.99-237.085-226.507-25.512-30.492-52.27-56.627-59.115-57.872-6.223-1.244-28.625-18.668-49.159-38.58s-44.181-37.958-52.894-40.448c-16.178-4.979-67.2-36.714-77.784-49.16-11.2-13.067-69.072-47.292-79.651-47.292-5.6,0-11.823-3.111-13.689-6.223-1.867-3.734-8.09-6.223-13.068-6.223s-28-11.824-51.026-26.136c-23.024-13.689-54.138-28-69.694-31.113-15.557-3.734-88.362-8.089-161.79-10.578-121.343-4.355-138.767-6.223-186.682-21.779-64.094-20.535-70.938-23.647-134.41-61.605-34.848-21.157-54.76-37.959-65.339-54.759-8.089-13.69-24.269-30.491-34.847-37.336-11.2-6.846-26.757-21.78-34.225-32.358-8.089-11.2-17.424-24.269-21.78-29.247s-20.535-27.38-36.091-49.781c-14.934-22.4-36.714-53.515-47.915-69.072-17.423-24.891-54.76-49.159-75.294-49.159-3.112,0-17.424-8.712-32.98-19.291l-27.38-18.668-229-4.979c-125.7-2.489-236.463-2.489-245.8,0-13.068,3.734-18.668,2.489-21.158-4.355-3.733-10.579-32.98-11.824-32.98-1.867,0,4.979-8.712,6.223-26.758,3.734-22.4-3.111-31.113-1.245-48.537,10.579-48.537,32.98-59.115,34.847-216.55,34.847-143.745,0-147.479-.622-172.992-14.935-14.312-8.712-32.98-17.424-40.448-19.912-25.513-7.468-141.877-64.717-261.354-128.188-149.967-79.028-174.858-85.873-322.336-85.251C3597.6-1511.871,3542.844-1509.382,3536-1506.27ZM4804.186-898.934c24.891,4.979,81.518,17.424,125.7,27.38,44.8,9.956,111.387,22.4,148.1,28,69.694,10.579,130.055,28,146.856,42.937,20.535,17.423,126.321,78.406,136.277,78.406,17.424,0,37.336,17.423,55.382,48.537,9.334,16.18,29.869,41.692,45.426,57.249,16.179,15.557,32.98,33.6,37.958,41.07,16.179,24.269,177.348,148.723,209.705,162.412,11.823,4.979,38.581,19.914,58.494,33.6,46.67,30.491,113.875,55.382,169.88,62.227,24.269,2.489,90.229,19.29,147.479,36.092,56.626,17.423,115.742,31.736,130.676,31.736,64.717.622,108.275,16.178,273.8,100.807,148.722,75.918,164.9,86.5,206.594,126.322,24.269,23.646,56.626,50.4,71.561,59.116C6862.036,91.72,7023.2,206.219,7068.63,251.022c21.779,21.157,56,50.4,76.539,65.338C7194.95,352.452,7297,457.616,7340.562,519.221c42.937,59.116,78.406,123.832,109.52,196.015,16.8,39.825,31.114,62.227,58.494,90.229,96.452,100.185,144.367,187.3,197.26,360.917,4.979,16.8,11.824,72.805,14.313,123.209,3.734,67.206,8.09,94.585,14.935,102.674,26.757,30.492,78.406,157.435,91.474,225.885,6.845,36.091,9.957,42.314,67.828,146.234,18.668,32.98,41.691,81.517,51.025,107.652,34.225,96.452,56.627,141.256,100.186,201.616s44.8,64.094,73.428,165.524l29.869,103.919,1.867,136.9,2.489,137.522-239.574,3.734c-131.92,2.489-255.131,6.845-273.8,10.579-18.668,3.111-119.476,6.845-224.018,8.712-104.541,1.244-250.153,6.223-323.581,10.578s-175.48,8.712-227.129,9.334c-51.026,0-241.441,6.845-423.145,14.312-181.081,7.468-369.006,14.935-416.921,16.179-265.087,8.089-548.221,15.557-691.966,18.668l-163.657,3.733v-27.38c0-27.38,15.557-123.21,23.024-141.256,1.867-4.978,3.111-12.445,2.489-16.8-1.867-11.2,10.578-103.3,15.557-116.365,3.733-9.334,1.867-10.579-8.712-7.467-6.845,2.49-37.336,0-67.827-5.6-29.869-4.978-77.162-9.334-104.542-9.334-51.648-.622-148.722-11.2-255.131-28-110.142-18.046-136.277-21.157-192.9-25.514-94.585-7.467-171.124-6.223-242.686,4.979-37.336,5.6-84.006,12.445-102.674,14.312-18.668,2.489-49.782,8.089-68.45,12.445-18.668,4.978-67.205,13.067-107.031,18.046-109.52,14.313-121.965,24.891-110.142,93.963,11.823,74.672,19.912,97.7,41.692,120.1,21.157,23.024,50.4,79.651,67.206,131.922,4.978,15.557,11.823,32.358,14.934,37.958s8.712,28,12.445,49.782c3.111,21.779,10.579,57.871,15.557,80.273,40.447,176.725,46.048,316.736,17.423,463.592-5.6,27.38-13.067,85.873-18.046,130.677-4.355,44.181-19.29,132.544-32.98,196.016-14.312,63.472-29.869,140.633-34.847,171.746s-15.557,75.917-24.268,99.563c-26.758,78.406-36.714,105.164-45.426,125.077-18.668,44.181-38.581,100.808-51.648,148.1-7.467,27.38-16.179,52.894-19.29,56.627-13.69,16.8-51.026,202.86-70.939,351.583l-3.111,21.779,42.314,13.068c60.36,19.29,125.076,32.98,152.456,32.98,12.446,0,42.315,6.845,65.961,14.934,69.072,24.269,121.343,29.869,254.509,28,67.205-.623,157.435.622,200.371,3.111,65.961,4.356,89.607,3.111,155.567-8.712,42.938-6.845,111.387-14.312,152.457-16.179,61.6-3.111,85.873-7.467,140.011-24.891,59.115-18.668,141.877-37.336,217.795-49.159,51.648-8.089,126.943-35.47,224.017-80.9,52.893-24.891,110.764-50.4,128.81-56.627l31.736-11.2-41.07-13.69c-50.4-16.179-141.877-55.382-163.035-69.694-19.29-13.068-46.67-28.625-103.3-57.872-32.358-17.424-60.361-41.07-115.743-96.452-88.985-90.229-171.747-194.148-191.037-239.574-31.736-72.805-46.048-115.742-50.4-151.834-32.358-247.663-31.113-286.867,9.334-448.035,18.668-73.428,39.826-139.389,59.739-186.059,19.29-42.937,83.384-136.277,104.541-150.589,13.068-8.712,139.389-26.135,258.865-35.469,84.006-6.845,288.734-9.334,449.9-5.6,63.472,1.245,198.5,16.8,240.819,26.758,13.689,3.734,42.937,8.712,65.338,11.823,22.4,3.733,53.515,8.089,69.072,11.2,19.913,3.734,39.2,2.49,65.339-4.356,28-6.845,80.273-9.334,214.061-9.956,174.236-.622,221.529-4.356,424.389-31.736,78.406-10.578,136.277-11.2,216.55-1.866,32.358,3.734,82.762,7.467,112.008,8.712s93.341,4.978,143.123,8.711,127.566,6.845,172.992,6.845,88.362,3.111,95.207,6.223c6.223,3.733,49.782,9.334,95.83,12.445,46.048,3.733,94.585,9.956,107.03,14.934,32.358,11.823,44.8,16.179,49.159,15.557,2.489,0,8.712,6.223,14.313,14.313s24.891,33.6,43.559,56l33.6,41.692-1.245,57.872c-1.244,34.225-8.711,92.1-18.668,141.878-10.578,49.159-15.557,90.229-13.068,99.563,6.223,24.268,6.845,215.306.623,336.026-5.6,103.919-7.467,116.365-46.048,270.688-45.426,182.948-49.781,209.083-47.915,326.692,1.245,113.253-8.711,199.126-34.847,305.535-20.535,81.517-21.779,94.585-18.045,146.855,2.489,41.692,1.245,66.583-6.223,94.585-11.824,46.67-77.162,174.858-107.652,212.194-13.069,15.557-41.071,52.893-62.85,84.007-44.8,64.094-175.48,195.393-238.952,239.574-23.024,16.179-69.072,41.692-102.674,56-32.98,14.935-87.118,42.937-119.477,62.227s-78.406,46.048-102.674,59.116c-49.782,27.38-183.57,118.854-212.194,144.989-39.825,36.092-96.452,74.672-150.589,102.675-41.071,21.779-82.763,51.648-154.946,113.254-76.54,65.338-103.3,84.006-121.342,87.117-19.291,3.734-31.114,12.446-63.472,47.915-31.736,35.469-41.07,50.4-46.67,76.54-7.467,32.98-42.937,82.14-80.273,111.386-9.334,7.467-22.4,17.423-29.247,23.646-42.937,35.47-118.854,95.83-173.613,137.522-34.225,26.758-70.939,56-81.518,65.961-51.648,47.915-192.281,151.834-217.794,160.546-9.957,3.733-33.6,16.8-52.271,29.247-18.046,12.446-36.092,22.4-39.826,22.4s-46.048,19.291-93.963,42.937c-116.987,57.249-139.389,67.206-189.17,82.14-23.024,7.468-47.293,15.557-54.138,18.668s-28,9.334-46.67,14.313-49.782,14.934-68.45,22.4c-23.024,9.335-58.493,15.558-109.52,19.291-86.5,6.223-126.944,13.068-158.679,26.758-38.581,16.179-80.273,18.668-121.965,6.845-36.713-10.579-39.825-10.579-96.452,2.489-31.736,7.467-75.917,21.157-98.319,29.869-44.8,18.046-46.047,18.046-270.687,14.935-103.3-1.245-147.478-4.979-211.572-16.179-125.7-22.4-196.015-38.581-230.24-51.649-16.8-6.223-48.537-13.689-69.694-15.557-21.78-2.489-55.382-9.957-74.673-16.8-19.912-6.844-58.493-18.668-85.873-25.513s-66.583-20.534-87.118-29.869c-97.074-46.047-323.581-123.832-416.921-142.5-29.247-6.223-209.705-93.963-247.042-120.72-9.334-6.223-31.736-18.668-49.782-26.758-88.985-41.692-202.238-118.854-255.753-174.236-13.068-13.689-33.6-39.2-45.426-56.627l-22.4-32.358-50.4-6.223c-28-3.733-61.6-9.957-74.672-13.69-29.869-8.712-94.585-58.493-153.7-117.609-25.513-25.513-86.5-75.294-135.033-110.142-72.806-52.271-93.963-64.094-118.232-67.205-76.54-10.579-92.719-19.913-263.221-140.011-90.852-64.094-189.793-130.055-220.906-146.856-125.7-68.45-183.57-108.275-280.022-192.9-27.38-23.646-65.961-57.249-84.629-73.428-19.913-16.8-58.494-62.227-87.118-102.675-28-39.826-62.849-88.362-77.162-107.031-126.321-166.146-217.795-386.43-255.131-612.937-7.467-46.67-9.334-93.963-8.089-189.792,1.245-70.316-1.867-169.88-6.223-220.906-10.579-125.7-12.445-384.563-2.489-448.035,16.8-109.52,59.116-308.646,79.028-370.251,42.937-132.543,50.4-195.393,34.225-275.666-9.334-42.937-7.467-61.6,13.69-155.568,6.845-32.358,6.223-45.426-6.223-116.365-8.089-47.293-18.668-88.985-26.135-101.43-6.845-11.823-23.024-47.292-36.092-79.651-29.247-73.428-52.893-107.653-116.365-170.5-56-55.382-76.539-91.474-92.1-161.79-13.69-62.227-14.935-400.743-1.245-479.771,27.38-158.057,95.83-357.806,144.989-422.522,28.624-37.336,122.587-177.347,166.769-247.664,18.046-28,43.559-62.227,57.249-75.916,13.068-13.691,29.247-33.6,34.847-44.8,24.891-48.537,96.452-226.506,105.164-260.108,4.978-20.535,13.69-54.761,19.29-76.54,7.467-27.38,33.6-79.028,88.985-174.235,43.559-74.051,84.007-149.345,90.852-166.146,6.223-17.424,20.535-45.426,31.736-62.227,24.891-37.337,42.937-72.183,59.738-115.12,6.845-17.424,23.646-46.048,36.714-64.094,28.624-37.959,41.692-62.849,57.249-108.275s48.537-88.984,87.74-115.742C1580.2.869,1689.1-37.711,1753.192-43.312c75.917-7.467,146.856-24.268,187.926-44.8,36.092-18.046,133.788-49.16,154.946-49.16,6.223,0,68.45-26.758,137.522-59.116,134.411-63.472,148.1-68.45,225.262-80.895,28-4.357,79.651-18.046,115.742-30.492,74.05-26.135,143.122-43.559,211.572-53.515,82.762-12.445,365.9-85.874,393.9-102.053,32.358-19.29,115.743-43.559,181.7-53.515,102.675-15.557,171.125-42.315,217.795-84.007,13.69-12.445,48.537-38.581,77.784-57.871s62.85-42.314,74.673-51.648c21.78-16.8,28.625-18.668,185.437-46.67,61.6-11.2,118.231-22.4,194.148-40.448,29.247-6.846,82.14-18.046,118.231-24.891,36.091-7.468,92.1-21.779,124.454-31.737,58.494-18.045,162.413-45.425,192.9-50.4C4590.747-912,4761.872-908.268,4804.186-898.934Z" transform="translate(0 0.001)"/><path d="M852.161-837.064c4.356,1.867,9.956,1.244,11.823-.623,2.489-1.867-1.245-3.733-8.089-3.111C849.049-840.8,847.182-838.931,852.161-837.064Z" transform="translate(4428.062 3504.364)"/></g></svg>