<svg xmlns="http://www.w3.org/2000/svg" width="1920.611" height="164.264" viewBox="0 0 1920.611 164.264">
  <g id="Group_24" data-name="Group 24" transform="translate(9.93 -977.906)">
    <g id="Group_9" data-name="Group 9" transform="translate(-9.838 992.906)">
      <path id="Path_71" data-name="Path 71" d="M2950.171,1317.6l0-29.6,14.132-4.558c5.967-2.094,17.892-6.38,26.289-9.471,8.611-3.191,20.542-7.378,26.725-9.372l11.266-3.688,22.968,2.492c28.053,3.19,68.475,4.287,86.147,2.393,13.032-1.4,21.422-3.389,39.979-9.572,14.358-4.785,18.993-7.078,33.353-16.449a138.016,138.016,0,0,1,17.892-9.969c4.419-1.894,15.461-6.58,24.3-10.567,9.057-3.889,19.658-7.876,23.635-8.774,4.194-1,9.057-2.393,11.042-3.09,1.987-.8,11.711-2.792,21.648-4.387,16.12-2.691,20.542-2.99,43.954-2.99,25.844.1,25.844.1,42.412,3.988,9.054,2.193,25.841,5.982,37.323,8.474,20.545,4.386,20.987,4.486,43.736,4.486,17.229,0,24.738-.4,30.038-1.695,6.188-1.5,13.254-1.7,51.909-1.4,41.744.2,45.721.4,54.777,2.492,5.966,1.4,13.032,4.188,17.009,6.78,9.939,6.281,25.622,13.957,34.235,16.649,10.6,3.39,18.775,4.287,47.928,5.085,25.185.7,27.394,1,43.735,4.785,9.278,2.194,19.661,4.984,22.754,6.082a34.274,34.274,0,0,0,8.613,2.093c1.548,0,12.812,4.885,25.183,10.867,26.281,12.761,40.858,17.447,54.113,17.547a49.457,49.457,0,0,1,17.889,2.991,176.426,176.426,0,0,0,17.23,4.984c9.718,2.293,27.609,9.073,39.1,14.954,4.194,2.193,12.368,5.982,17.889,8.474S2947.739,1320.391,2950.171,1317.6Zm657.139-2.962Z" transform="translate(-2950.162 -1170.366)" fill="#fff"/>
      <path id="Path_74" data-name="Path 74" d="M2953.392,1291.1l10.906-7.653c5.967-2.094,17.892-6.38,26.289-9.471,8.611-3.191,20.542-7.378,26.725-9.372l11.266-3.688,22.968,2.492c28.053,3.19,68.475,4.287,86.147,2.393,13.032-1.4,21.422-3.389,39.979-9.572,14.358-4.785,18.993-7.078,33.353-16.449a138.016,138.016,0,0,1,17.892-9.969c4.419-1.894,15.461-6.58,24.3-10.567,9.057-3.889,19.658-7.876,23.635-8.774,4.194-1,9.057-2.393,11.042-3.09,1.987-.8,11.711-2.792,21.648-4.387,16.12-2.691,20.542-2.99,43.954-2.99,25.844.1,25.844.1,42.412,3.988,9.054,2.193,25.841,5.982,37.323,8.474,20.545,4.386,20.987,4.486,43.736,4.486,17.229,0,24.738-.4,30.038-1.695,6.188-1.5,13.254-1.7,51.909-1.4,41.744.2,45.721.4,54.777,2.492,5.966,1.4,13.032,4.188,17.009,6.78,9.939,6.281,25.622,13.957,34.235,16.649,10.6,3.39,18.775,4.287,47.928,5.085,25.185.7,34.164-3.788,50.505,0,9.278,2.194,5.2,44.23,5.2,44.23Z" transform="translate(-2538.194 -1141.834)" fill="#fff"/>
      <path id="Path_75" data-name="Path 75" d="M3137.692,1303.418c24.887-4.1,21.422-5.327,39.979-15.044,14.358-7.521,18.993-11.124,33.353-25.854a137.146,137.146,0,0,1,17.892-15.669c4.419-2.977,15.461-10.342,24.3-16.609,9.057-6.112,19.658-12.38,23.635-13.79a103.874,103.874,0,0,0,11.042-4.857c1.987-1.254,11.711-4.388,21.648-6.9,16.12-4.229,20.542-4.7,43.954-4.7,25.844.157,25.844.157,42.412,6.268,9.054,3.447,25.841,9.4,37.323,13.319,20.545,6.894,20.987,7.051,43.736,7.051,17.229,0,24.738-.627,30.038-2.664,6.188-2.35,13.254-2.664,51.909-2.194,41.744.314,45.721.627,54.777,3.917,5.966,2.194,13.032,6.582,17.009,10.656,9.939,9.871,25.622,21.936,34.235,26.167,10.6,5.328,18.775,6.739,47.928,7.993,25.185,1.1,27.394,1.567,43.735,7.521,9.278,3.448,19.661,7.834,22.754,9.559,3.312,1.881,7.068,3.29,8.613,3.29s12.812,7.677,25.183,17.079a178.907,178.907,0,0,0,51.966,27.612v11.712l-727.417.071S3134,1304.041,3137.692,1303.418Z" transform="translate(-1945 -1200)" fill="#fff"/>
    </g>
    <g id="Group_19" data-name="Group 19" transform="translate(-9.838 977.907)">
      <g id="Union_2" data-name="Union 2" transform="translate(0 0)" fill="none">
        <path d="M0,119.2l14.063-6.259c5.938-2.084,17.8-6.351,26.162-9.428,8.569-3.177,20.442-7.345,26.594-9.33l11.21-3.671,22.856,2.48c27.916,3.176,68.142,4.269,85.729,2.382,12.97-1.39,21.318-3.374,39.785-9.528,14.288-4.764,18.9-7.046,33.19-16.376a137.447,137.447,0,0,1,17.8-9.925c4.4-1.885,15.385-6.55,24.178-10.52,9.013-3.871,19.563-7.841,23.521-8.734,4.173-.993,9.013-2.382,10.988-3.077,1.977-.794,11.654-2.779,21.543-4.367,16.042-2.679,20.442-2.977,43.74-2.977,25.718.1,25.718.1,42.206,3.97,9.01,2.183,25.716,5.954,37.141,8.436,20.445,4.367,20.886,4.467,43.524,4.467,17.146,0,24.619-.4,29.893-1.687,6.158-1.489,13.189-1.687,51.656-1.39,41.541.2,45.5.4,54.511,2.481,5.937,1.39,12.969,4.169,16.926,6.749,9.891,6.252,25.5,13.9,34.069,16.574,2.885.923,9.8,1.795,18.652,2.65,4.046-1.416,7.686-2.632,9.128-2.958,4.174-.993,9.013-2.382,10.988-3.076,1.978-.795,11.655-2.78,21.544-4.368,16.042-2.679,20.442-2.977,43.74-2.977,25.718.1,25.718.1,42.206,3.97,9.009,2.183,25.715,5.955,37.141,8.437,20.445,4.366,20.885,4.466,43.524,4.466,17.146,0,24.618-.4,29.892-1.687,6.158-1.489,13.19-1.687,51.657-1.39,41.541.2,45.5.4,54.511,2.481,5.936,1.39,12.968,4.169,16.926,6.749,9.891,6.253,25.5,13.9,34.069,16.574,10.553,3.375,18.684,4.269,47.695,5.062,8.236.228,14,.414,18.611.694,1.86-.189,3.571-.414,5.108-.674,12.969-2.194,21.317-5.327,39.784-15.044,14.288-7.52,18.9-11.124,33.19-25.853a136.727,136.727,0,0,1,17.8-15.67c4.4-2.976,15.386-10.341,24.178-16.609,9.013-6.112,19.562-12.379,23.52-13.79a103.262,103.262,0,0,0,10.988-4.856c1.977-1.255,11.654-4.388,21.543-6.9C1383.736.471,1388.137,0,1411.435,0c25.718.157,25.718.157,42.205,6.268,9.01,3.447,25.716,9.4,37.142,13.319,20.445,6.893,20.885,7.051,43.524,7.051,17.146,0,24.618-.626,29.892-2.664,6.158-2.35,13.189-2.664,51.656-2.193,41.542.314,45.5.627,54.511,3.917,5.937,2.194,12.969,6.583,16.926,10.656,9.892,9.871,25.5,21.937,34.07,26.167,10.552,5.328,18.684,6.738,47.695,7.992,25.062,1.1,27.26,1.567,43.523,7.521,9.233,3.448,19.565,7.834,22.643,9.559,3.295,1.88,7.034,3.29,8.571,3.29s12.75,7.676,25.061,17.079c26.154,20.057,45.292,28.076,51.665,31.523v22.827s-907.812-2.171-907.374-25.05l10.988-6.11c5.938-3.29,17.8-10.028,26.162-14.886,2.485-1.454,5.247-3.04,8.067-4.635-72.344-7.283-165.719-16.582-285.836-28.321C626.7,100.1,0,163.157,0,163.157S-.213,134.976,0,119.2Z" stroke="none"/>
        <path d="M 2.982279539108276 159.8415374755859 C 52.21931457519531 154.8826904296875 633.4866943359375 96.2955322265625 772.18359375 80.33016204833984 L 772.500732421875 80.29349517822266 L 772.818603515625 80.32468414306641 C 876.8117065429688 90.48754119873047 970.3124389648438 99.7515869140625 1058.663330078125 108.6463470458984 L 1068.061279296875 109.5925369262695 L 1059.83984375 114.2425384521484 C 1056.939086914062 115.8832550048828 1054.237915039062 117.4351577758789 1051.81103515625 118.8556365966797 L 1051.806884765625 118.8580169677734 L 1051.803100585938 118.8601608276367 C 1043.221435546875 123.8487319946289 1031.3193359375 130.6004028320312 1025.591186523438 133.7744445800781 L 1019.203552246094 137.3263397216797 C 1019.253295898438 137.3398742675781 1019.303466796875 137.3533935546875 1019.354553222656 137.3670654296875 C 1021.634338378906 137.9768218994141 1024.743408203125 138.5892028808594 1028.595092773438 139.1868286132812 C 1036.177124023438 140.3637237548828 1046.844116210938 141.5146789550781 1060.2998046875 142.6080169677734 C 1085.42578125 144.6494445800781 1121.10791015625 146.5580139160156 1166.355224609375 148.2808685302734 C 1242.610229492188 151.1844482421875 1347.056030273438 153.6189727783203 1476.791015625 155.5165863037109 C 1683.669799804688 158.5429229736328 1890.289428710938 159.2252655029297 1917.51904296875 159.3040618896484 L 1917.51904296875 141.3071899414062 C 1916.759643554688 140.9230804443359 1915.883666992188 140.4896850585938 1914.890747070312 139.9984893798828 C 1910.559326171875 137.8558807373047 1904.013793945312 134.6177825927734 1895.889526367188 129.8508758544922 C 1886.220092773438 124.1775436401367 1876.509521484375 117.6139678955078 1867.028076171875 110.343017578125 L 1867.028198242188 110.3429412841797 C 1861.452392578125 106.0840835571289 1855.909423828125 102.0351181030273 1851.419067382812 98.94063568115234 C 1845.795166015625 95.06501770019531 1843.857177734375 94.0872802734375 1843.358032226562 93.86605072021484 C 1842.263427734375 93.78444671630859 1840.833129882812 93.40843963623047 1839.0966796875 92.74539947509766 C 1837.34814453125 92.07762145996094 1835.4443359375 91.17301177978516 1833.736450195312 90.19862365722656 C 1832.351806640625 89.42578887939453 1829.105346679688 87.94119262695312 1825.04052734375 86.22206115722656 C 1820.703125 84.38784790039062 1815.906982421875 82.47869110107422 1811.535400390625 80.84606170654297 C 1803.159057617188 77.77938079833984 1798.929077148438 76.33756256103516 1793.600952148438 75.40634918212891 C 1788.229614257812 74.46730041503906 1781.927368164062 74.07801818847656 1768.9267578125 73.50944519042969 C 1753.194091796875 72.82944488525391 1744.464111328125 72.1265869140625 1737.7890625 71.00254058837891 C 1731.008544921875 69.86051940917969 1726.026611328125 68.23490142822266 1720.023193359375 65.20536804199219 C 1715.738159179688 63.08847045898438 1709.690307617188 59.08408355712891 1702.9921875 53.92897033691406 C 1696.411987304688 48.86444473266602 1690.083618164062 43.3765869140625 1685.173095703125 38.47634887695312 L 1685.15673828125 38.45992279052734 L 1685.140502929688 38.44325637817383 C 1681.55029296875 34.74777984619141 1674.899291992188 30.57063484191895 1669.325927734375 28.51087379455566 L 1669.326049804688 28.51076698303223 C 1664.827270507812 26.869384765625 1661.851440429688 26.10378837585449 1655.092407226562 25.61492156982422 C 1647.986938476562 25.10087394714355 1637.238159179688 24.94182586669922 1615.831909179688 24.77992057800293 L 1615.824829101562 24.77968406677246 L 1615.81787109375 24.77968406677246 C 1605.2998046875 24.6511116027832 1598.083374023438 24.59373092651367 1592.419067382812 24.59373092651367 C 1573.965454101562 24.59373092651367 1569.30126953125 25.23706436157227 1565.267944335938 26.7761116027832 L 1565.267944335938 26.77609062194824 C 1559.654052734375 28.94194221496582 1552.126342773438 29.63730239868164 1534.306518554688 29.63730239868164 C 1522.77197265625 29.63730239868164 1516.973876953125 29.59587287902832 1511.257202148438 28.66087341308594 C 1505.525756835938 27.7232551574707 1500.302612304688 25.96230316162109 1489.896484375 22.45373153686523 L 1489.824096679688 22.42944526672363 L 1489.81689453125 22.42682647705078 L 1489.809814453125 22.42444610595703 C 1478.771728515625 18.64004325866699 1461.843994140625 12.61723804473877 1452.596923828125 9.080262184143066 C 1444.5595703125 6.101338863372803 1440.524536132812 4.605828762054443 1435.55810546875 3.868254661560059 C 1430.492431640625 3.116111755371094 1424.117431640625 3.077302217483521 1411.417236328125 2.999924182891846 C 1399.941528320312 3.00003719329834 1393.0390625 3.115705966949463 1387.16357421875 3.746826171875 C 1381.334106445312 4.372778415679932 1376.291015625 5.535873889923096 1368.458862304688 7.600635528564453 L 1368.4453125 7.604207038879395 L 1368.431518554688 7.607540607452393 C 1363.766967773438 8.790397644042969 1358.95166015625 10.16349315643311 1354.873168945312 11.47373104095459 C 1350.187133789062 12.97920703887939 1348.19580078125 13.85111141204834 1347.757934570312 14.12873077392578 L 1347.682861328125 14.17634963989258 L 1347.60546875 14.21944522857666 C 1345.547119140625 15.36063575744629 1340.607666015625 17.61254119873047 1336.216918945312 19.26063537597656 L 1336.193359375 19.26944541931152 L 1336.169799804688 19.27801704406738 C 1332.670776367188 20.52497863769531 1322.442749023438 26.54476737976074 1313.357421875 32.70388412475586 C 1305.708862304688 38.15537643432617 1296.290771484375 44.51174545288086 1291.228393554688 47.92849349975586 C 1290.431518554688 48.46635055541992 1289.730224609375 48.93944549560547 1289.1435546875 49.33634948730469 C 1285.3955078125 51.86801528930664 1277.365966796875 58.75277709960938 1271.8369140625 64.58444213867188 L 1271.825073242188 64.59706115722656 L 1271.813110351562 64.60920715332031 C 1264.927856445312 71.70635223388672 1259.95458984375 76.58468627929688 1254.908325195312 80.51682281494141 C 1249.807861328125 84.49111175537109 1244.797607421875 87.38063812255859 1237.86669921875 91.02849578857422 C 1228.067626953125 96.18515777587891 1221.401245117188 99.32373046875 1215.576171875 101.5237274169922 C 1209.721923828125 103.7344436645508 1204.22216796875 105.1856384277344 1197.186645507812 106.3758773803711 C 1195.606689453125 106.6434936523438 1193.821899414062 106.8792037963867 1191.882202148438 107.0765914916992 L 1191.639770507812 107.1013488769531 L 1191.396484375 107.0865859985352 C 1186.91259765625 106.814208984375 1181.431030273438 106.6339721679688 1172.885009765625 106.3970642089844 C 1157.20166015625 105.968017578125 1148.508666992188 105.5251617431641 1141.880249023438 104.8180160522461 C 1135.202758789062 104.1055526733398 1130.2919921875 103.0901107788086 1124.36865234375 101.196403503418 C 1120.115600585938 99.86616516113281 1114.0966796875 97.341064453125 1107.418579101562 94.08539581298828 C 1100.84033203125 90.87873077392578 1094.5126953125 87.40230560302734 1089.600952148438 84.29706573486328 L 1089.583374023438 84.28587341308594 L 1089.565795898438 84.27444458007812 C 1085.9580078125 81.92273712158203 1079.245727539062 79.25724792480469 1073.602172851562 77.93515777587891 C 1064.830322265625 75.90730285644531 1060.804077148438 75.7275390625 1019.75244140625 75.53111267089844 L 1019.747863769531 75.53111267089844 L 1019.743347167969 75.53111267089844 C 1009.233154296875 75.44968414306641 1002.013122558594 75.41325378417969 996.3326416015625 75.41325378417969 C 977.7203979492188 75.41325378417969 972.9725341796875 75.83228302001953 968.8223876953125 76.83468627929688 C 963.3359985351562 78.17706298828125 955.8992919921875 78.60801696777344 938.2176513671875 78.60801696777344 C 926.7431030273438 78.60801696777344 920.9776611328125 78.58206176757812 915.3436279296875 77.99848937988281 C 909.69384765625 77.41325378417969 904.4957275390625 76.30325317382812 894.1397705078125 74.09159088134766 L 894.0671997070312 74.07611083984375 L 894.0619506835938 74.07515716552734 L 894.0569458007812 74.07396697998047 C 883.0274047851562 71.67889404296875 866.1008911132812 67.86428833007812 856.8565063476562 65.62371063232422 C 848.76318359375 63.72366714477539 844.6986083984375 62.76971817016602 839.6295776367188 62.29301834106445 C 834.4881591796875 61.80944442749023 828.087158203125 61.78491973876953 815.3348388671875 61.73587417602539 C 803.81591796875 61.73591995239258 796.8827514648438 61.80980682373047 790.9583740234375 62.2127799987793 C 785.0619506835938 62.61396789550781 779.9814453125 63.35563659667969 772.1002807617188 64.67206573486328 L 772.0907592773438 64.67349243164062 L 772.0814819335938 64.67516326904297 C 761.2742919921875 66.41015625 752.6240844726562 68.28444671630859 751.1800537109375 68.86444854736328 L 751.1185913085938 68.88920593261719 L 751.0562133789062 68.91110992431641 C 749.0223999023438 69.62563323974609 744.1283569335938 71.03849029541016 739.7678833007812 72.07540130615234 L 739.751708984375 72.07920837402344 L 739.7352905273438 72.08301544189453 C 739.08837890625 72.22920989990234 737.0847778320312 72.79587554931641 730.9367065429688 74.94682312011719 L 730.3140869140625 75.16468048095703 L 729.6576538085938 75.10134887695312 C 719.1624145507812 74.08753967285156 713.2169189453125 73.23063659667969 710.3800659179688 72.32301330566406 L 710.3800659179688 72.32293701171875 C 706.1280517578125 70.99179840087891 700.1134033203125 68.46804809570312 693.4404907226562 65.21492004394531 C 686.8626708984375 62.00801849365234 680.5347900390625 58.53206253051758 675.6226806640625 55.42706298828125 L 675.6050415039062 55.41563415527344 L 675.587158203125 55.40420532226562 C 671.9803466796875 53.05226135253906 665.2678833007812 50.38695907592773 659.6238403320312 49.06492233276367 C 650.8516845703125 47.03706359863281 646.8255004882812 46.85730361938477 605.7738647460938 46.66087341308594 L 605.7693481445312 46.66087341308594 L 605.7647705078125 46.66087341308594 C 595.2550659179688 46.57944488525391 588.0357666015625 46.54301834106445 582.35693359375 46.54301834106445 C 563.7432250976562 46.54301834106445 558.9951782226562 46.9620475769043 554.8450317382812 47.96444702148438 C 549.3588256835938 49.30706405639648 541.9219360351562 49.73801803588867 524.2393188476562 49.73801803588867 C 512.7655029296875 49.73801803588867 507.0002746582031 49.71206283569336 501.3657531738281 49.12825393676758 C 495.7160034179688 48.54277801513672 490.5178833007812 47.43254089355469 480.1621704101562 45.22063446044922 L 480.0885925292969 45.20492172241211 L 480.0836181640625 45.2039680480957 L 480.07861328125 45.20277786254883 C 469.0281372070312 42.80294418334961 452.0959777832031 38.98740386962891 442.8782348632812 36.75373077392578 C 434.7851257324219 34.85368347167969 430.7202453613281 33.89971923828125 425.6512145996094 33.42301559448242 C 420.5097961425781 32.93944549560547 414.1088562011719 32.9146842956543 401.3562927246094 32.86563873291016 C 389.8373718261719 32.86568069458008 382.9044189453125 32.93956756591797 376.9800415039062 33.3425407409668 C 371.0836181640625 33.74373245239258 366.0031433105469 34.48539733886719 358.1219482421875 35.80182647705078 L 358.1124267578125 35.80325317382812 L 358.1031188964844 35.8049201965332 C 347.2969360351562 37.5396842956543 338.6464538574219 39.41373062133789 337.2019348144531 39.99373245239258 L 337.1412353515625 40.01801681518555 L 337.0795593261719 40.0396842956543 C 335.0507507324219 40.75325393676758 330.1576538085938 42.16635131835938 325.79052734375 43.20515823364258 L 325.7733764648438 43.20920562744141 L 325.7564697265625 43.21301651000977 C 322.1475830078125 44.02717208862305 312.063720703125 47.78173065185547 302.7890625 51.76426696777344 C 295.115234375 55.22856903076172 285.6777648925781 59.26309967041016 280.6052856445312 61.43135070800781 C 279.8319396972656 61.76206588745117 279.1502685546875 62.05325317382812 278.578369140625 62.29849243164062 C 274.7421875 63.94015884399414 266.8676452636719 68.21421051025391 261.2597961425781 71.96015930175781 L 261.2467041015625 71.96897125244141 L 261.2336120605469 71.9775390625 C 254.3450317382812 76.47539520263672 249.3700408935547 79.56658935546875 244.3257446289062 82.05635070800781 C 239.2476501464844 84.56278228759766 234.2566986083984 86.38587188720703 227.3516998291016 88.68825531005859 C 208.8293151855469 94.86087036132812 200.1424102783203 96.93849182128906 186.9386138916016 98.35325622558594 C 181.1831359863281 98.97063446044922 172.8298034667969 99.29682922363281 162.7814636230469 99.29682922363281 C 142.4386138916016 99.29682922363281 118.593132019043 98.02159118652344 100.5509872436523 95.96872711181641 L 100.5509872436523 95.96871948242188 L 78.35282897949219 93.55967712402344 L 67.75670623779297 97.02968597412109 L 67.75074768066406 97.03182983398438 L 67.74456024169922 97.03372955322266 C 61.69932174682617 98.98468017578125 49.82384490966797 103.1513519287109 41.27194213867188 106.3218231201172 L 41.26884460449219 106.3230133056641 L 41.26575088500977 106.3242034912109 C 32.76667022705078 109.4534454345703 20.9656867980957 113.6939544677734 15.17530059814453 115.7277069091797 L 2.980620861053467 121.155876159668 C 2.843034505844116 133.6329956054688 2.93564510345459 152.3329772949219 2.982279539108276 159.8415374755859 M 0.004559732973575592 163.1565856933594 C 0.004559732973575592 163.1565856933594 -0.2132974117994308 134.9756317138672 0.004559732973575592 119.1968231201172 L 14.06694030761719 112.9373016357422 C 20.00527381896973 110.8530197143555 31.87170219421387 106.5861129760742 40.22908401489258 103.5089721679688 C 48.79789352416992 100.3320617675781 60.67074966430664 96.16420745849609 66.82312774658203 94.17873382568359 L 78.03360748291016 90.50753784179688 L 100.8900375366211 92.98801422119141 C 119.4996948242188 95.1053466796875 143.5847015380859 96.29686737060547 162.7815856933594 96.29686737060547 C 172.3817749023438 96.29686737060547 180.7555847167969 95.99920654296875 186.6186065673828 95.37039947509766 C 199.5886077880859 93.98063659667969 207.9369354248047 91.99610900878906 226.4031372070312 85.84206390380859 C 240.6914672851562 81.07825469970703 245.3040771484375 78.79587554931641 259.5933837890625 69.46563720703125 C 265.0905151367188 65.79349517822266 273.2212219238281 61.32777786254883 277.3981323242188 59.54039764404297 C 281.7955017089844 57.6558723449707 292.7835998535156 52.99015808105469 301.5757446289062 49.0203971862793 C 310.588134765625 45.14944458007812 321.1388549804688 41.179443359375 325.0962219238281 40.28658676147461 C 329.2695617675781 39.29396820068359 334.1088562011719 37.90444564819336 336.0843200683594 37.20968246459961 C 338.0617065429688 36.41587448120117 347.7383728027344 34.43039703369141 357.6276550292969 32.84277725219727 C 373.6693115234375 30.16349220275879 378.0693359375 29.86563491821289 401.3676452636719 29.86563491821289 C 427.0859985351562 29.96468353271484 427.0859985351562 29.96468353271484 443.5740966796875 33.83539581298828 C 452.5838317871094 36.01897048950195 469.289794921875 39.78992080688477 480.7152709960938 42.27111053466797 C 501.1605224609375 46.63801574707031 501.6014709472656 46.73801803588867 524.2393188476562 46.73801803588867 C 541.385009765625 46.73801803588867 548.85791015625 46.34111022949219 554.1319580078125 45.05039596557617 C 558.7501831054688 43.93396759033203 563.8624267578125 43.54299926757812 582.35693359375 43.54299926757812 C 588.521728515625 43.54299926757812 596.17138671875 43.58641052246094 605.7881469726562 43.66087341308594 C 647.32958984375 43.85968399047852 651.2866821289062 44.05849456787109 660.299560546875 46.14206314086914 C 666.2366943359375 47.53158950805664 673.2683715820312 50.31087493896484 677.2257690429688 52.89111328125 C 687.11669921875 59.14349365234375 702.7236328125 66.78634643554688 711.2943115234375 69.46563720703125 C 714.1798095703125 70.38896942138672 721.0936279296875 71.26016235351562 729.9459838867188 72.11515808105469 C 733.992431640625 70.69944763183594 737.6319580078125 69.48278045654297 739.0738525390625 69.15682983398438 C 743.2478637695312 68.16420745849609 748.0862426757812 66.77468109130859 750.0619506835938 66.08063507080078 C 752.0400390625 65.28610992431641 761.7166748046875 63.30063629150391 771.6060180664062 61.71301651000977 C 787.6476440429688 59.03372955322266 792.0476684570312 58.73587417602539 815.3460083007812 58.73587417602539 C 841.0643310546875 58.83468246459961 841.0643310546875 58.83468246459961 857.5524291992188 62.70563507080078 C 866.5614624023438 64.88920593261719 883.2671508789062 68.66110992431641 894.693603515625 71.14230346679688 C 915.1388549804688 75.50825500488281 915.5791015625 75.60801696777344 938.2176513671875 75.60801696777344 C 955.3635864257812 75.60801696777344 962.8352661132812 75.21111297607422 968.1093139648438 73.92063903808594 C 972.7277221679688 72.80420684814453 977.837646484375 72.41313934326172 996.3325805664062 72.41313934326172 C 1002.49755859375 72.41313934326172 1010.149719238281 72.45658874511719 1019.766723632812 72.53111267089844 C 1061.307861328125 72.72991943359375 1065.265258789062 72.92873382568359 1074.27783203125 75.01229858398438 C 1080.21435546875 76.40182495117188 1087.245971679688 79.18111419677734 1091.2041015625 81.7613525390625 C 1101.095092773438 88.01468658447266 1116.701171875 95.65658569335938 1125.272705078125 98.33587646484375 C 1135.826171875 101.7108764648438 1143.956665039062 102.6044464111328 1172.967163085938 103.3982543945312 C 1181.203125 103.6265869140625 1186.970092773438 103.8120651245117 1191.578369140625 104.0920639038086 C 1193.437866210938 103.9027786254883 1195.148803710938 103.6782531738281 1196.68603515625 103.4180145263672 C 1209.65478515625 101.2239685058594 1218.00341796875 98.09111022949219 1236.469604492188 88.37373352050781 C 1250.757934570312 80.85325622558594 1255.370483398438 77.24967956542969 1269.659790039062 62.5203971862793 C 1275.156982421875 56.72254180908203 1283.288330078125 49.67111206054688 1287.464599609375 46.85039901733398 C 1291.862670898438 43.87420654296875 1302.850708007812 36.50944519042969 1311.642944335938 30.2418270111084 C 1320.655517578125 24.12992095947266 1331.205322265625 17.86230278015137 1335.16259765625 16.45206451416016 C 1339.336669921875 14.88515949249268 1344.17529296875 12.69087409973145 1346.150756835938 11.59563541412354 C 1348.128173828125 10.34111213684082 1357.804809570312 7.207302093505859 1367.694091796875 4.69968318939209 C 1383.735473632812 0.4706356525421143 1388.13671875 -7.863362407078966e-05 1411.43505859375 -7.863362407078966e-05 C 1437.152465820312 0.1565880328416824 1437.152465820312 0.1565880328416824 1453.640502929688 6.267540454864502 C 1462.650512695312 9.714683532714844 1479.356201171875 15.66896915435791 1490.78271484375 19.58658790588379 C 1511.227905273438 26.47992134094238 1511.667846679688 26.63730239868164 1534.306518554688 26.63730239868164 C 1551.452392578125 26.63730239868164 1558.92431640625 26.01087379455566 1564.198364257812 23.9732551574707 C 1568.81640625 22.2110767364502 1573.92822265625 21.59361267089844 1592.4189453125 21.59361267089844 C 1598.584594726562 21.59361267089844 1606.235473632812 21.6622142791748 1615.854614257812 21.77992057800293 C 1657.39697265625 22.09420776367188 1661.353393554688 22.40730285644531 1670.365966796875 25.69682693481445 C 1676.303100585938 27.89111137390137 1683.334838867188 32.27944564819336 1687.292236328125 36.35277938842773 C 1697.18408203125 46.22396850585938 1712.7900390625 58.28944396972656 1721.361694335938 62.5203971862793 C 1731.914306640625 67.84825134277344 1740.045776367188 69.25849151611328 1769.056274414062 70.51229858398438 C 1794.11865234375 71.60848999023438 1796.316284179688 72.07920837402344 1812.579345703125 78.03349304199219 C 1821.812377929688 81.48159027099609 1832.144287109375 85.86730194091797 1835.222412109375 87.59253692626953 C 1838.517456054688 89.47254180908203 1842.255981445312 90.88301849365234 1843.793090820312 90.88301849365234 C 1845.334106445312 90.88301849365234 1856.542602539062 98.55896759033203 1868.853637695312 107.9623031616211 C 1895.007690429688 128.0187377929688 1914.146240234375 136.0384979248047 1920.51904296875 139.4856414794922 L 1920.51904296875 162.3123016357422 C 1920.51904296875 162.3123016357422 1012.706970214844 160.1415863037109 1013.145263671875 137.2625427246094 L 1024.133422851562 131.1525421142578 C 1030.071655273438 127.862060546875 1041.938110351562 121.1246795654297 1050.295532226562 116.2665863037109 C 1052.7802734375 114.8123016357422 1055.542358398438 113.2265853881836 1058.362915039062 111.63134765625 C 986.0186157226562 104.348014831543 892.6438598632812 95.04896545410156 772.5266723632812 83.31039428710938 C 626.704345703125 100.0961151123047 0.004559732973575592 163.1565856933594 0.004559732973575592 163.1565856933594 Z" stroke="none" fill="#fff"/>
      </g>
    </g>
  </g>
</svg>
